<svg width="203" height="236" viewBox="0 0 203 236" fill="none" xmlns="http://www.w3.org/2000/svg">
<g filter="url(#filter0_d_235_624)">
<rect x="17" y="17" width="153" height="186" rx="20" fill="#F6F6F6"/>
<path fill-rule="evenodd" clip-rule="evenodd" d="M33.5788 57L37.1576 62.8917V89.6719H42.8837V63.4272L46.4625 57.5356L50.0413 63.4272V89.6719H55.7674V63.4272L59.3463 57.5356L62.9251 63.4272V89.6719H68.6512V64.4984L72.2301 58.6068L75.8089 64.4984V89.6719H81.535V64.4984L85.1138 58.6068L88.6926 64.4984V89.6719H94.4187V63.4272L97.9975 57.5356L101.576 63.4272V89.6719H107.302V64.4984L110.881 58.6068L114.46 64.4984V89.6719H120.186V64.4984L123.765 58.6068L127.344 64.4984V89.6719H133.07V63.4272L136.649 57.5356L140.228 63.4272V89.6719H145.954V64.4984L149.533 58.6068L153.111 64.4984V127.7L153.111 135.734H30V126.093H42.8837V99.3128H37.1576V126.093H30L30 99.3128V89.6719L30 62.8917L33.5788 57ZM120.186 99.3128H114.46V126.093H120.186V99.3128ZM127.344 126.093V99.3128H133.07V126.093H127.344ZM75.8089 99.3128H81.535V126.093H75.8089V99.3128ZM94.4187 126.093H88.6926V99.3128H94.4187V126.093ZM145.954 126.093V99.3128H140.228V126.093H145.954ZM101.576 99.3128H107.302V126.093H101.576V99.3128ZM68.6512 99.3128H62.9251V126.093H68.6512V99.3128ZM50.0413 99.3128H55.7674V126.093H50.0413V99.3128Z" fill="#616060"/>
<path d="M54.3193 116.866L62.8767 102.603C72.2819 112.76 79.0841 109.1 80.8026 104.128L87.9602 108.276C106.599 106.585 118.67 108.714 138.064 110.424C145.171 107.216 151.663 106.845 155.242 110.424C158.821 114.002 158.942 129.95 156.674 140.486L148.084 163.39H140.927L145.937 145.496L141.642 140.486C124.673 150.895 109.269 153.143 91.539 141.917V163.39H86.5287V145.496L83.6656 140.486C79.808 139.184 76.6747 132.128 76.508 131.181C76.3413 130.234 73.6449 119.728 73.6449 119.728L69.3504 121.16L59.3297 122.592L54.3193 116.866Z" fill="#616060"/>
<path d="M62.9085 102.55L54.3193 116.866L59.3297 122.592L69.3504 121.16L73.6449 119.728C73.6449 119.728 76.3413 130.234 76.508 131.181C76.6747 132.128 79.808 139.184 83.6656 140.486L86.5287 145.496V163.39H91.539V141.917M73.6449 96.1084C89.3917 93.9611 78.6553 124.739 59.3297 98.2557M80.8026 104.128L87.9602 108.276C106.599 106.585 118.67 108.714 138.064 110.424C145.171 107.216 151.663 106.845 155.242 110.424C158.821 114.002 158.942 129.95 156.674 140.486L148.084 163.39H140.927L145.937 145.496L141.642 140.486M135.201 132.612L141.642 140.486M141.642 140.486C124.673 150.895 109.269 153.143 91.539 141.917M91.539 141.917L95.8336 136.549" stroke="white" stroke-width="2" stroke-linecap="round" stroke-linejoin="round"/>
</g>
<path d="M34.576 226L33.664 223.488H28.624L27.712 226H26.128L30.304 214.8H31.984L36.16 226H34.576ZM29.136 222.096H33.152L31.136 216.576L29.136 222.096ZM41.3213 217.792C42.2599 217.792 43.0119 218.091 43.5773 218.688C44.1426 219.275 44.4253 220.075 44.4253 221.088V226H43.0333V221.168C43.0333 220.517 42.8573 220.016 42.5053 219.664C42.1533 219.301 41.6679 219.12 41.0493 219.12C40.3559 219.12 39.7959 219.339 39.3693 219.776C38.9426 220.203 38.7293 220.864 38.7293 221.76V226H37.3372V218H38.7293V219.152C39.2946 218.245 40.1586 217.792 41.3213 217.792ZM47.0725 216.544C46.8058 216.544 46.5818 216.453 46.4005 216.272C46.2192 216.091 46.1285 215.872 46.1285 215.616C46.1285 215.36 46.2192 215.141 46.4005 214.96C46.5818 214.768 46.8058 214.672 47.0725 214.672C47.3285 214.672 47.5472 214.768 47.7285 214.96C47.9098 215.141 48.0005 215.36 48.0005 215.616C48.0005 215.872 47.9098 216.091 47.7285 216.272C47.5472 216.453 47.3285 216.544 47.0725 216.544ZM46.3685 226V218H47.7605V226H46.3685ZM58.5241 217.792C59.4201 217.792 60.1455 218.085 60.7001 218.672C61.2548 219.248 61.5321 220.032 61.5321 221.024V226H60.1401V221.072C60.1401 220.453 59.9801 219.973 59.6601 219.632C59.3401 219.291 58.9135 219.12 58.3801 219.12C57.7828 219.12 57.3028 219.323 56.9401 219.728C56.5881 220.123 56.4121 220.731 56.4121 221.552V226H55.0201V221.072C55.0201 220.453 54.8655 219.973 54.5561 219.632C54.2575 219.291 53.8468 219.12 53.3241 219.12C52.7375 219.12 52.2468 219.323 51.8521 219.728C51.4681 220.133 51.2761 220.741 51.2761 221.552V226H49.8841V218H51.2761V219.072C51.8201 218.219 52.6148 217.792 53.6601 217.792C54.7375 217.792 55.5215 218.245 56.0121 219.152C56.5668 218.245 57.4041 217.792 58.5241 217.792ZM70.0863 218H71.4783V226H70.0863V224.624C69.3929 225.68 68.3849 226.208 67.0623 226.208C65.9423 226.208 64.9876 225.803 64.1983 224.992C63.4089 224.171 63.0143 223.173 63.0143 222C63.0143 220.827 63.4089 219.835 64.1983 219.024C64.9876 218.203 65.9423 217.792 67.0623 217.792C68.3849 217.792 69.3929 218.32 70.0863 219.376V218ZM67.2383 224.864C68.0489 224.864 68.7263 224.592 69.2703 224.048C69.8143 223.493 70.0863 222.811 70.0863 222C70.0863 221.189 69.8143 220.512 69.2703 219.968C68.7263 219.413 68.0489 219.136 67.2383 219.136C66.4383 219.136 65.7663 219.413 65.2223 219.968C64.6783 220.512 64.4062 221.189 64.4062 222C64.4062 222.811 64.6783 223.493 65.2223 224.048C65.7663 224.592 66.4383 224.864 67.2383 224.864ZM73.5872 226V214.32H74.9793V226H73.5872ZM88.1749 214.8H89.6469V226H88.1749V220.96H82.7349V226H81.2469V214.8H82.7349V219.552H88.1749V214.8ZM97.4198 218H98.8118V226H97.4198V224.848C96.8544 225.755 95.9904 226.208 94.8278 226.208C93.8891 226.208 93.1371 225.915 92.5718 225.328C92.0064 224.731 91.7238 223.925 91.7238 222.912V218H93.1158V222.832C93.1158 223.483 93.2918 223.989 93.6438 224.352C93.9958 224.704 94.4811 224.88 95.0998 224.88C95.7931 224.88 96.3531 224.667 96.7798 224.24C97.2064 223.803 97.4198 223.136 97.4198 222.24V218ZM102.115 220.16C102.115 220.469 102.27 220.72 102.579 220.912C102.889 221.093 103.262 221.243 103.699 221.36C104.137 221.467 104.574 221.595 105.011 221.744C105.449 221.883 105.822 222.128 106.131 222.48C106.441 222.821 106.595 223.264 106.595 223.808C106.595 224.533 106.313 225.115 105.747 225.552C105.193 225.989 104.478 226.208 103.603 226.208C102.825 226.208 102.158 226.037 101.603 225.696C101.049 225.355 100.654 224.901 100.419 224.336L101.619 223.648C101.747 224.032 101.987 224.336 102.339 224.56C102.691 224.784 103.113 224.896 103.603 224.896C104.062 224.896 104.441 224.811 104.739 224.64C105.038 224.459 105.187 224.181 105.187 223.808C105.187 223.499 105.033 223.253 104.723 223.072C104.414 222.88 104.041 222.731 103.603 222.624C103.166 222.507 102.729 222.373 102.291 222.224C101.854 222.075 101.481 221.829 101.171 221.488C100.862 221.147 100.707 220.709 100.707 220.176C100.707 219.483 100.974 218.912 101.507 218.464C102.051 218.016 102.729 217.792 103.539 217.792C104.19 217.792 104.766 217.941 105.267 218.24C105.779 218.528 106.163 218.933 106.419 219.456L105.251 220.112C104.963 219.429 104.393 219.088 103.539 219.088C103.145 219.088 102.809 219.184 102.531 219.376C102.254 219.557 102.115 219.819 102.115 220.16ZM112.581 217.792C113.701 217.792 114.656 218.203 115.445 219.024C116.235 219.835 116.629 220.827 116.629 222C116.629 223.173 116.235 224.171 115.445 224.992C114.656 225.803 113.701 226.208 112.581 226.208C111.259 226.208 110.251 225.68 109.557 224.624V226H108.165V214.8H109.557V219.376C110.251 218.32 111.259 217.792 112.581 217.792ZM112.405 224.864C113.205 224.864 113.877 224.592 114.421 224.048C114.965 223.493 115.237 222.811 115.237 222C115.237 221.189 114.965 220.512 114.421 219.968C113.877 219.413 113.205 219.136 112.405 219.136C111.595 219.136 110.917 219.413 110.373 219.968C109.829 220.512 109.557 221.189 109.557 222C109.557 222.811 109.829 223.493 110.373 224.048C110.917 224.592 111.595 224.864 112.405 224.864ZM124.914 218H126.306V226H124.914V224.624C124.221 225.68 123.213 226.208 121.89 226.208C120.77 226.208 119.816 225.803 119.026 224.992C118.237 224.171 117.842 223.173 117.842 222C117.842 220.827 118.237 219.835 119.026 219.024C119.816 218.203 120.77 217.792 121.89 217.792C123.213 217.792 124.221 218.32 124.914 219.376V218ZM122.066 224.864C122.877 224.864 123.554 224.592 124.098 224.048C124.642 223.493 124.914 222.811 124.914 222C124.914 221.189 124.642 220.512 124.098 219.968C123.554 219.413 122.877 219.136 122.066 219.136C121.266 219.136 120.594 219.413 120.05 219.968C119.506 220.512 119.234 221.189 119.234 222C119.234 222.811 119.506 223.493 120.05 224.048C120.594 224.592 121.266 224.864 122.066 224.864ZM132.399 217.792C133.338 217.792 134.09 218.091 134.655 218.688C135.221 219.275 135.503 220.075 135.503 221.088V226H134.111V221.168C134.111 220.517 133.935 220.016 133.583 219.664C133.231 219.301 132.746 219.12 132.127 219.12C131.434 219.12 130.874 219.339 130.447 219.776C130.021 220.203 129.807 220.864 129.807 221.76V226H128.415V218H129.807V219.152C130.373 218.245 131.237 217.792 132.399 217.792ZM144.071 214.8H145.463V226H144.071V224.624C143.377 225.68 142.369 226.208 141.047 226.208C139.927 226.208 138.972 225.803 138.183 224.992C137.393 224.171 136.999 223.173 136.999 222C136.999 220.827 137.393 219.835 138.183 219.024C138.972 218.203 139.927 217.792 141.047 217.792C142.369 217.792 143.377 218.32 144.071 219.376V214.8ZM141.223 224.864C142.033 224.864 142.711 224.592 143.255 224.048C143.799 223.493 144.071 222.811 144.071 222C144.071 221.189 143.799 220.512 143.255 219.968C142.711 219.413 142.033 219.136 141.223 219.136C140.423 219.136 139.751 219.413 139.207 219.968C138.663 220.512 138.391 221.189 138.391 222C138.391 222.811 138.663 223.493 139.207 224.048C139.751 224.592 140.423 224.864 141.223 224.864ZM148.964 219.344C149.422 218.352 150.254 217.856 151.46 217.856V219.312C150.777 219.28 150.19 219.461 149.7 219.856C149.209 220.251 148.964 220.885 148.964 221.76V226H147.572V218H148.964V219.344ZM158.578 218H160.066L156.802 226.496C156.46 227.403 155.98 228.091 155.362 228.56C154.754 229.04 154.05 229.253 153.25 229.2V227.904C154.231 227.979 154.951 227.435 155.41 226.272L155.554 225.968L152.066 218H153.554L156.274 224.272L158.578 218Z" fill="#444444"/>
<defs>
<filter id="filter0_d_235_624" x="0" y="0" width="203" height="236" filterUnits="userSpaceOnUse" color-interpolation-filters="sRGB">
<feFlood flood-opacity="0" result="BackgroundImageFix"/>
<feColorMatrix in="SourceAlpha" type="matrix" values="0 0 0 0 0 0 0 0 0 0 0 0 0 0 0 0 0 0 127 0" result="hardAlpha"/>
<feOffset dx="8" dy="8"/>
<feGaussianBlur stdDeviation="12.5"/>
<feComposite in2="hardAlpha" operator="out"/>
<feColorMatrix type="matrix" values="0 0 0 0 0 0 0 0 0 0 0 0 0 0 0 0 0 0 0.25 0"/>
<feBlend mode="normal" in2="BackgroundImageFix" result="effect1_dropShadow_235_624"/>
<feBlend mode="normal" in="SourceGraphic" in2="effect1_dropShadow_235_624" result="shape"/>
</filter>
</defs>
</svg>
