<svg width="203" height="236" viewBox="0 0 203 236" fill="none" xmlns="http://www.w3.org/2000/svg">
<g filter="url(#filter0_d_235_610)">
<rect x="17" y="17" width="153" height="186" rx="20" fill="#F6F6F6"/>
<mask id="path-2-inside-1_235_610" fill="white">
<path fill-rule="evenodd" clip-rule="evenodd" d="M40.8726 59.1304L46.5448 64.5464C36.9515 101.582 37.169 123.168 47.1327 158.712L41.6043 164.45C37.4658 168.745 41.4885 175.91 47.3487 174.799C80.6021 168.495 106.073 167.807 142.281 172.306C148.107 173.03 151.626 165.838 147.38 161.784L143.986 158.543C150.928 121.238 151.024 99.4346 143.626 60.4572H142.802L146.649 56.4644C150.787 52.1691 146.765 45.0045 140.904 46.1155C107.651 52.4197 82.1801 53.1073 45.9715 48.6079C40.1462 47.884 36.6271 55.0765 40.8726 59.1304Z"/>
</mask>
<path fill-rule="evenodd" clip-rule="evenodd" d="M40.8726 59.1304L46.5448 64.5464C36.9515 101.582 37.169 123.168 47.1327 158.712L41.6043 164.45C37.4658 168.745 41.4885 175.91 47.3487 174.799C80.6021 168.495 106.073 167.807 142.281 172.306C148.107 173.03 151.626 165.838 147.38 161.784L143.986 158.543C150.928 121.238 151.024 99.4346 143.626 60.4572H142.802L146.649 56.4644C150.787 52.1691 146.765 45.0045 140.904 46.1155C107.651 52.4197 82.1801 53.1073 45.9715 48.6079C40.1462 47.884 36.6271 55.0765 40.8726 59.1304Z" fill="#616060"/>
<path d="M46.5448 64.5464L47.5128 64.7971L47.6601 64.2287L47.2353 63.8232L46.5448 64.5464ZM40.8726 59.1304L40.182 59.8536L40.182 59.8536L40.8726 59.1304ZM47.1327 158.712L47.8528 159.406L48.2502 158.994L48.0956 158.442L47.1327 158.712ZM41.6043 164.45L40.8841 163.756L40.8841 163.756L41.6043 164.45ZM47.3487 174.799L47.1624 173.816L47.1624 173.816L47.3487 174.799ZM142.281 172.306L142.405 171.314L142.405 171.314L142.281 172.306ZM147.38 161.784L146.69 162.507L146.69 162.507L147.38 161.784ZM143.986 158.543L143.003 158.36L142.904 158.892L143.296 159.266L143.986 158.543ZM143.626 60.4572L144.609 60.2707L144.455 59.4572H143.626V60.4572ZM142.802 60.4572L142.082 59.7633L140.45 61.4572H142.802V60.4572ZM146.649 56.4644L145.929 55.7706L145.929 55.7706L146.649 56.4644ZM140.904 46.1155L140.718 45.133L140.718 45.133L140.904 46.1155ZM45.9715 48.6079L45.8482 49.6003L45.8482 49.6003L45.9715 48.6079ZM47.2353 63.8232L41.5632 58.4071L40.182 59.8536L45.8542 65.2696L47.2353 63.8232ZM48.0956 158.442C43.1275 140.72 40.6047 126.531 40.5049 112.182C40.405 97.8316 42.7282 83.2686 47.5128 64.7971L45.5767 64.2956C40.768 82.8602 38.4034 97.6082 38.5049 112.196C38.6064 126.785 41.1742 141.161 46.1698 158.982L48.0956 158.442ZM42.3244 165.144L47.8528 159.406L46.4126 158.018L40.8841 163.756L42.3244 165.144ZM47.1624 173.816C42.2034 174.757 38.9019 168.696 42.3244 165.144L40.8841 163.756C36.0296 168.794 40.7736 177.063 47.5349 175.781L47.1624 173.816ZM142.405 171.314C106.101 166.803 80.525 167.491 47.1624 173.816L47.5349 175.781C80.6792 169.498 106.045 168.811 142.158 173.299L142.405 171.314ZM146.69 162.507C150.208 165.867 147.315 171.924 142.405 171.314L142.158 173.299C148.898 174.136 153.043 165.809 148.071 161.061L146.69 162.507ZM143.296 159.266L146.69 162.507L148.071 161.061L144.677 157.82L143.296 159.266ZM142.644 60.6437C150.019 99.4996 149.922 121.178 143.003 158.36L144.969 158.726C151.934 121.299 152.03 99.3697 144.609 60.2707L142.644 60.6437ZM142.802 61.4572H143.626V59.4572H142.802V61.4572ZM145.929 55.7706L142.082 59.7633L143.522 61.151L147.369 57.1583L145.929 55.7706ZM141.091 47.098C146.05 46.1578 149.351 52.2184 145.929 55.7706L147.369 57.1583C152.223 52.1199 147.479 43.8512 140.718 45.133L141.091 47.098ZM45.8482 49.6003C82.1524 54.1116 107.728 53.4229 141.091 47.098L140.718 45.133C107.574 51.4165 82.2078 52.1031 46.0948 47.6156L45.8482 49.6003ZM41.5632 58.4071C38.0446 55.0474 40.9376 48.9901 45.8482 49.6003L46.0948 47.6156C39.3548 46.778 35.2096 55.1058 40.182 59.8536L41.5632 58.4071Z" fill="#606060" mask="url(#path-2-inside-1_235_610)"/>
<circle cx="94.6265" cy="100.457" r="38" fill="white"/>
<path d="M132.626 100.457C132.626 121.444 115.613 138.457 94.6265 138.457C73.6396 138.457 56.6265 121.444 56.6265 100.457C56.6265 79.4703 73.6396 62.4572 94.6265 62.4572C115.613 62.4572 132.626 79.4703 132.626 100.457Z" fill="white"/>
<path d="M110.14 128.174C99.1395 133.675 91.1395 133.675 79.6395 128.174C82.1395 125.174 84.697 123.945 90.1395 125.174C92.1101 123.743 93.642 123.004 95.1395 122.973C94.0862 118.304 93.9575 114.288 94.0391 110.674C90.355 107.277 90.9341 105.723 86.6395 103.674C86.6395 103.674 83.1395 110.674 77.1395 109.174C71.1395 107.674 67.1395 97.6744 66.6395 96.6744C66.1395 95.6744 80.1395 92.1744 84.1395 96.1744C88.1395 100.174 86.6395 103.674 86.6395 103.674C90.9341 105.723 90.355 107.277 94.0391 110.674C94.0704 109.287 94.1328 107.958 94.1858 106.674C94.3877 101.782 94.4528 97.5441 92.1395 93.1745C91.1397 91.286 92.0132 92.317 91.1395 91.1744C89.4634 94.1744 82.6395 93.1745 79.6395 90.6744C75.4773 87.157 73.8248 84.4139 74.1395 75.6745C77.1395 74.6744 88.0932 77.1744 91.1395 82.1744C94.1858 87.1745 92.9634 90.6744 91.1395 91.1744C92.0132 92.317 91.1397 91.286 92.1395 93.1745C94.4528 97.5441 94.3877 101.782 94.1858 106.674C96.4002 104.558 98.2169 103.101 100.676 101.674C100.676 101.674 95.1395 95.6744 103.64 91.1744C112.14 86.6744 121.64 92.6744 121.64 92.6744C121.64 92.6744 120.64 100.174 112.64 104.674C104.64 109.174 99.6761 104.674 100.676 101.674C98.2169 103.101 96.4002 104.558 94.1858 106.674C94.1328 107.958 94.0704 109.287 94.0391 110.674C93.9575 114.288 94.0862 118.304 95.1395 122.973C96.6929 122.94 98.2092 123.669 100.14 125.174C104.278 124.232 107.14 124.675 110.14 128.174Z" fill="#D9D9D9"/>
<path d="M79.6395 128.174L79.2554 127.854C79.1566 127.973 79.1181 128.13 79.151 128.281C79.1839 128.432 79.2846 128.559 79.4238 128.626L79.6395 128.174ZM110.14 128.174L110.363 128.622C110.501 128.553 110.599 128.424 110.63 128.273C110.66 128.122 110.619 127.966 110.519 127.849L110.14 128.174ZM90.1395 125.174L90.0294 125.662C90.1698 125.694 90.317 125.664 90.4334 125.579L90.1395 125.174ZM100.14 125.174L99.832 125.569C99.9504 125.661 100.104 125.695 100.251 125.662L100.14 125.174ZM95.1395 122.973L95.15 123.473L95.15 123.473L95.1395 122.973ZM92.1395 93.1745L92.5814 92.9406L92.5814 92.9406L92.1395 93.1745ZM94.0391 110.674L94.539 110.686L94.539 110.686L94.0391 110.674ZM74.1395 75.6745L73.9814 75.2001C73.7835 75.2661 73.6473 75.448 73.6398 75.6565L74.1395 75.6745ZM79.6395 90.6744L79.3168 91.0563L79.3194 91.0585L79.6395 90.6744ZM84.4073 84.2522C84.1741 84.1043 83.8652 84.1735 83.7173 84.4067C83.5694 84.6399 83.6385 84.9488 83.8717 85.0967L84.4073 84.2522ZM121.64 92.6744L122.135 92.7405C122.161 92.5469 122.072 92.356 121.907 92.2517L121.64 92.6744ZM132.126 100.457C132.126 121.168 115.337 137.957 94.6265 137.957V138.957C115.889 138.957 133.126 121.72 133.126 100.457H132.126ZM94.6265 137.957C73.9158 137.957 57.1265 121.168 57.1265 100.457H56.1265C56.1265 121.72 73.3635 138.957 94.6265 138.957V137.957ZM57.1265 100.457C57.1265 79.7465 73.9158 62.9572 94.6265 62.9572V61.9572C73.3635 61.9572 56.1265 79.1942 56.1265 100.457H57.1265ZM94.6265 62.9572C115.337 62.9572 132.126 79.7465 132.126 100.457H133.126C133.126 79.1942 115.889 61.9572 94.6265 61.9572V62.9572ZM79.4238 128.626C85.2133 131.394 90.1642 132.8 95.077 132.8C99.9916 132.8 104.82 131.393 110.363 128.622L109.916 127.727C104.459 130.455 99.7874 131.8 95.077 131.8C90.3649 131.8 85.5657 130.455 79.8552 127.723L79.4238 128.626ZM80.0236 128.495C81.242 127.033 82.4326 126.052 83.9401 125.564C85.4539 125.074 87.3542 125.058 90.0294 125.662L90.2496 124.687C87.4823 124.062 85.3825 124.046 83.632 124.613C81.8751 125.182 80.5371 126.316 79.2554 127.854L80.0236 128.495ZM100.251 125.662C102.285 125.199 103.943 125.091 105.437 125.491C106.922 125.889 108.306 126.804 109.76 128.5L110.519 127.849C108.973 126.045 107.426 124.989 105.696 124.525C103.975 124.065 102.133 124.208 100.028 124.687L100.251 125.662ZM90.4334 125.579C92.3857 124.161 93.8123 123.501 95.15 123.473L95.129 122.473C93.4718 122.507 91.8345 123.325 89.8456 124.77L90.4334 125.579ZM95.15 123.473C96.5267 123.444 97.9275 124.083 99.832 125.569L100.447 124.78C98.4908 123.254 96.859 122.437 95.129 122.473L95.15 123.473ZM94.6854 106.695C94.8871 101.806 94.9647 97.4424 92.5814 92.9406L91.6976 93.4085C93.9409 97.6459 93.8883 101.757 93.6862 106.654L94.6854 106.695ZM95.6273 122.863C94.5862 118.248 94.4578 114.277 94.539 110.686L93.5392 110.663C93.4571 114.3 93.5863 118.36 94.6518 123.083L95.6273 122.863ZM94.539 110.686C94.5702 109.304 94.6322 107.982 94.6854 106.695L93.6862 106.654C93.6334 107.934 93.5707 109.269 93.5392 110.663L94.539 110.686ZM73.6398 75.6565C73.4816 80.0496 73.8135 83.0041 74.7469 85.3197C75.686 87.6491 77.2122 89.2778 79.3168 91.0563L79.9622 90.2925C77.9046 88.5537 76.5235 87.0521 75.6744 84.9458C74.8197 82.8255 74.4827 80.0388 74.6392 75.6925L73.6398 75.6565ZM92.5814 92.9406C92.0867 92.0062 92.0916 91.8578 92.088 91.83C92.085 91.8072 92.0776 91.7383 92.0529 91.6604C92.0277 91.5811 91.9918 91.5111 91.9515 91.4445C91.878 91.3231 91.7505 91.1504 91.5367 90.8707L90.7423 91.4781C90.9653 91.7698 91.0563 91.8967 91.096 91.9623C91.1123 91.9893 91.1066 91.9847 91.0996 91.9625C91.093 91.9417 91.0915 91.9217 91.0964 91.9595C91.1244 92.1739 91.1925 92.4544 91.6976 93.4085L92.5814 92.9406ZM91.5367 90.8707C89.9769 88.8308 88.1965 87.1786 86.8102 86.0383C86.1161 85.4674 85.5184 85.0228 85.093 84.7202C84.8803 84.5688 84.7105 84.4529 84.5931 84.3743C84.5344 84.3349 84.4887 84.305 84.4574 84.2845C84.4417 84.2743 84.4296 84.2665 84.4212 84.2611C84.417 84.2584 84.4138 84.2563 84.4114 84.2549C84.4103 84.2541 84.4093 84.2535 84.4087 84.2531C84.4083 84.2529 84.408 84.2527 84.4078 84.2526C84.4077 84.2525 84.4076 84.2524 84.4075 84.2524C84.4074 84.2523 84.4073 84.2522 84.1395 84.6745C83.8717 85.0967 83.8716 85.0967 83.8716 85.0966C83.8716 85.0966 83.8716 85.0966 83.8716 85.0966C83.8716 85.0966 83.8717 85.0967 83.8718 85.0968C83.8721 85.0969 83.8726 85.0973 83.8733 85.0977C83.8748 85.0987 83.8773 85.1002 83.8806 85.1024C83.8873 85.1067 83.8977 85.1134 83.9117 85.1225C83.9395 85.1407 83.9816 85.1683 84.0366 85.2052C84.1467 85.2789 84.3088 85.3895 84.5133 85.535C84.9225 85.8261 85.5014 86.2566 86.1749 86.8106C87.524 87.9203 89.2436 89.5181 90.7423 91.4781L91.5367 90.8707ZM79.3194 91.0585C80.9173 92.3902 83.4794 93.2917 85.8452 93.4853C87.0336 93.5826 88.2058 93.5044 89.2069 93.1906C90.2095 92.8764 91.0762 92.313 91.576 91.4183L90.703 90.9306C90.3648 91.5359 89.75 91.9724 88.9079 92.2364C88.0644 92.5007 87.0289 92.5788 85.9268 92.4886C83.7115 92.3073 81.3617 91.4588 79.9596 90.2903L79.3194 91.0585ZM91.2717 91.6566C92.4585 91.3313 93.2993 90.0894 93.4635 88.4106C93.6296 86.712 93.1293 84.4793 91.5665 81.9143L90.7125 82.4346C92.196 84.8696 92.6077 86.8868 92.4682 88.3133C92.3268 89.7594 91.6445 90.5176 91.0073 90.6922L91.2717 91.6566ZM91.5665 81.9143C90.7485 80.5717 89.421 79.4274 87.8815 78.4826C86.3376 77.5351 84.5506 76.77 82.7754 76.1985C80.9996 75.6267 79.2217 75.2442 77.6901 75.0683C76.1797 74.8949 74.8405 74.9137 73.9814 75.2001L74.2976 76.1488C74.9385 75.9352 76.0935 75.8915 77.576 76.0618C79.0371 76.2296 80.7505 76.5971 82.4689 77.1504C84.1879 77.7038 85.8981 78.4387 87.3585 79.3349C88.8233 80.2339 90.0073 81.2771 90.7125 82.4346L91.5665 81.9143ZM66.1923 96.898C66.4208 97.355 67.5748 100.165 69.4067 103.008C71.2255 105.83 73.8162 108.859 77.0183 109.66L77.2608 108.689C74.4628 107.99 72.0535 105.269 70.2473 102.466C68.4542 99.6837 67.3583 96.9939 67.0867 96.4508L66.1923 96.898ZM94.378 110.307C92.5733 108.643 91.8373 107.458 90.9592 106.357C90.0613 105.231 89.0732 104.281 86.8548 103.223L86.4242 104.126C88.5004 105.116 89.3701 105.968 90.1773 106.98C91.0043 108.018 91.8208 109.309 93.7001 111.042L94.378 110.307ZM86.8548 103.223C86.1221 102.874 84.5064 102.409 82.921 101.959C81.2947 101.498 79.6709 101.045 78.8236 100.71L78.4554 101.639C79.3631 101.999 81.0553 102.47 82.6482 102.921C84.282 103.385 85.7888 103.823 86.4242 104.126L86.8548 103.223ZM77.0183 109.66C80.254 110.468 82.7986 108.97 84.4861 107.347C85.3319 106.534 85.9794 105.675 86.4149 105.022C86.6332 104.695 86.7994 104.417 86.9118 104.22C86.968 104.121 87.0109 104.043 87.0401 103.988C87.0547 103.96 87.0659 103.939 87.0737 103.924C87.0776 103.916 87.0806 103.91 87.0828 103.906C87.0839 103.904 87.0848 103.902 87.0854 103.901C87.0857 103.9 87.086 103.899 87.0862 103.899C87.0864 103.899 87.0865 103.899 87.0865 103.898C87.0866 103.898 87.0867 103.898 86.6395 103.674C86.1923 103.451 86.1924 103.451 86.1924 103.451C86.1924 103.451 86.1925 103.45 86.1925 103.45C86.1925 103.45 86.1925 103.451 86.1924 103.451C86.1922 103.451 86.1917 103.452 86.1911 103.453C86.1899 103.456 86.1878 103.46 86.1849 103.465C86.1791 103.477 86.1699 103.494 86.1574 103.518C86.1324 103.565 86.0942 103.635 86.043 103.725C85.9406 103.904 85.7865 104.162 85.5829 104.467C85.1746 105.08 84.5721 105.877 83.793 106.627C82.2305 108.129 80.025 109.38 77.2608 108.689L77.0183 109.66ZM67.0867 96.4508C67.2047 96.6868 67.0325 96.846 67.0712 96.8055C67.0923 96.7835 67.1635 96.7263 67.3199 96.6425C67.6217 96.4809 68.1083 96.2889 68.7491 96.0893C70.0226 95.6928 71.8217 95.2922 73.765 95.0455C75.7098 94.7985 77.7757 94.7086 79.5891 94.921C81.4193 95.1355 82.906 95.6481 83.786 96.528L84.4931 95.8209C83.373 94.7008 81.6097 94.1509 79.7055 93.9278C77.7845 93.7028 75.6318 93.8004 73.639 94.0534C71.6448 94.3067 69.7877 94.7186 68.4518 95.1345C67.7879 95.3413 67.2316 95.5554 66.8478 95.761C66.6615 95.8608 66.4793 95.9775 66.3482 96.1147C66.2348 96.2333 66.0118 96.5371 66.1923 96.898L67.0867 96.4508ZM83.786 96.528C85.7055 98.4475 86.2774 100.214 86.3916 101.47C86.4491 102.103 86.3912 102.616 86.3211 102.967C86.2861 103.142 86.248 103.276 86.2201 103.364C86.2061 103.407 86.1947 103.439 86.1874 103.458C86.1838 103.468 86.1812 103.474 86.1799 103.477C86.1792 103.479 86.1789 103.48 86.1789 103.48C86.1789 103.48 86.179 103.48 86.1792 103.479C86.1793 103.479 86.1794 103.479 86.1795 103.479C86.1796 103.478 86.1797 103.478 86.1797 103.478C86.1798 103.478 86.18 103.477 86.6395 103.674C87.0991 103.871 87.0992 103.871 87.0994 103.871C87.0994 103.871 87.0996 103.87 87.0997 103.87C87.0999 103.869 87.1002 103.869 87.1004 103.868C87.101 103.867 87.1016 103.866 87.1023 103.864C87.1037 103.86 87.1055 103.856 87.1075 103.851C87.1116 103.841 87.117 103.827 87.1234 103.81C87.1362 103.776 87.153 103.729 87.1723 103.669C87.2107 103.549 87.2586 103.378 87.3017 103.163C87.3878 102.732 87.4549 102.121 87.3875 101.379C87.2516 99.8846 86.5736 97.9014 84.4931 95.8209L83.786 96.528ZM94.5312 107.036C96.7256 104.939 98.511 103.509 100.927 102.107L100.425 101.242C97.9229 102.694 96.0748 104.178 93.8404 106.313L94.5312 107.036ZM101.069 101.984C101.153 101.877 101.357 101.702 101.71 101.469C102.05 101.244 102.49 100.99 103.004 100.717C104.031 100.172 105.33 99.566 106.671 98.9904C108.011 98.4152 109.385 97.8733 110.563 97.4544C111.753 97.0308 112.704 96.7469 113.215 96.6687L113.064 95.6802C112.447 95.7746 111.414 96.0902 110.227 96.5123C109.028 96.9392 107.633 97.4891 106.276 98.0715C104.921 98.6535 103.595 99.271 102.535 99.8336C102.006 100.115 101.536 100.386 101.159 100.635C100.795 100.875 100.474 101.123 100.283 101.365L101.069 101.984ZM100.676 101.674C101.044 101.335 101.044 101.336 101.044 101.336C101.044 101.336 101.044 101.336 101.044 101.336C101.044 101.336 101.044 101.336 101.044 101.336C101.044 101.336 101.043 101.335 101.043 101.334C101.041 101.333 101.038 101.329 101.034 101.325C101.026 101.316 101.013 101.301 100.996 101.281C100.962 101.241 100.912 101.18 100.849 101.1C100.724 100.94 100.552 100.704 100.371 100.406C100.005 99.8076 99.6117 98.9799 99.4643 98.0349C99.3183 97.0986 99.4126 96.0435 100.026 94.9597C100.642 93.8698 101.807 92.7104 103.873 91.6163L103.406 90.7325C101.222 91.8885 99.8913 93.1666 99.1554 94.4673C98.416 95.7742 98.3007 97.0628 98.4763 98.189C98.6505 99.3064 99.1099 100.26 99.517 100.927C99.7217 101.262 99.9161 101.53 100.061 101.715C100.133 101.808 100.193 101.88 100.236 101.931C100.257 101.956 100.274 101.975 100.287 101.989C100.293 101.996 100.298 102.002 100.302 102.006C100.303 102.008 100.305 102.009 100.306 102.011C100.307 102.011 100.307 102.012 100.308 102.012C100.308 102.013 100.308 102.013 100.308 102.013C100.308 102.013 100.309 102.014 100.676 101.674ZM103.873 91.6163C107.967 89.449 112.322 89.7994 115.695 90.7193C117.378 91.1783 118.803 91.7754 119.806 92.2579C120.307 92.4989 120.702 92.7107 120.97 92.8613C121.104 92.9366 121.206 92.9966 121.274 93.0373C121.308 93.0576 121.334 93.0731 121.35 93.0833C121.358 93.0883 121.364 93.0921 121.368 93.0944C121.37 93.0956 121.371 93.0964 121.372 93.0969C121.372 93.0971 121.373 93.0972 121.373 93.0973C121.373 93.0973 121.373 93.0973 121.373 93.0973C121.373 93.0973 121.373 93.0972 121.64 92.6744C121.907 92.2517 121.906 92.2516 121.906 92.2514C121.906 92.2514 121.906 92.2512 121.905 92.251C121.905 92.2507 121.904 92.2503 121.904 92.2498C121.902 92.2488 121.9 92.2475 121.897 92.2458C121.892 92.2424 121.884 92.2376 121.874 92.2315C121.854 92.2192 121.825 92.2015 121.787 92.179C121.712 92.134 121.602 92.0695 121.46 91.9895C121.175 91.8296 120.761 91.6078 120.239 91.3567C119.195 90.8547 117.713 90.2331 115.959 89.7546C112.457 88.7995 107.812 88.3999 103.406 90.7325L103.873 91.6163ZM121.64 92.6744C121.144 92.6084 121.144 92.6082 121.144 92.608C121.144 92.608 121.144 92.6078 121.144 92.6078C121.144 92.6077 121.144 92.6077 121.144 92.6078C121.144 92.6081 121.144 92.6088 121.144 92.61C121.143 92.6124 121.143 92.6165 121.142 92.6224C121.14 92.6341 121.137 92.6528 121.133 92.6781C121.125 92.7287 121.111 92.8059 121.091 92.907C121.05 93.1093 120.983 93.4072 120.877 93.7805C120.666 94.5275 120.302 95.574 119.695 96.7588C118.481 99.1262 116.293 102.045 112.394 104.239L112.885 105.11C116.986 102.803 119.298 99.7227 120.584 97.2151C121.227 95.9624 121.613 94.8526 121.839 94.0527C121.953 93.6526 122.026 93.3294 122.071 93.104C122.094 92.9912 122.109 92.9029 122.12 92.8414C122.125 92.8107 122.128 92.7867 122.131 92.7698C122.132 92.7614 122.133 92.7547 122.134 92.7498C122.134 92.7473 122.134 92.7453 122.135 92.7438C122.135 92.743 122.135 92.7423 122.135 92.7418C122.135 92.7415 122.135 92.7412 122.135 92.7411C122.135 92.7408 122.135 92.7405 121.64 92.6744ZM112.394 104.239C108.493 106.433 105.421 106.387 103.485 105.53C101.509 104.654 100.761 102.999 101.15 101.833L100.202 101.516C99.5907 103.349 100.825 105.445 103.08 106.444C105.376 107.461 108.786 107.416 112.885 105.11L112.394 104.239Z" fill="black"/>
<path d="M81.535 146.455C82.195 146.455 82.705 146.98 82.705 147.61V155.995C82.705 156.715 82.24 157.09 81.64 157.09C81.145 157.09 80.755 156.835 80.47 156.43L76.195 150.58V155.95C76.195 156.565 75.7 157.09 75.07 157.09C74.41 157.09 73.9 156.565 73.9 155.95V147.55C73.9 146.845 74.365 146.455 74.98 146.455C75.46 146.455 75.85 146.71 76.135 147.115L80.41 152.965V147.61C80.41 146.98 80.92 146.455 81.535 146.455ZM88.7505 151.99C89.2305 151.99 89.6505 152.395 89.6505 152.89C89.6505 153.385 89.2305 153.79 88.7505 153.79H85.1805C84.7005 153.79 84.2805 153.385 84.2805 152.89C84.2805 152.395 84.7005 151.99 85.1805 151.99H88.7505ZM95.2191 146.5C97.5591 146.5 99.0741 148.06 99.0741 149.95C99.0741 151.84 97.5591 153.355 95.2191 153.355H93.4791V155.98C93.4791 156.595 92.9841 157.12 92.3691 157.12C91.7241 157.12 91.2291 156.595 91.2291 155.98V147.745C91.2291 147.025 91.7541 146.5 92.4741 146.5H95.2191ZM95.0991 151.435C96.0891 151.435 96.8841 151.12 96.8841 149.95C96.8841 148.78 96.0891 148.42 95.0991 148.42H93.4791V151.435H95.0991ZM104.747 151.99C105.227 151.99 105.647 152.395 105.647 152.89C105.647 153.385 105.227 153.79 104.747 153.79H101.177C100.697 153.79 100.277 153.385 100.277 152.89C100.277 152.395 100.697 151.99 101.177 151.99H104.747ZM115.955 155.47C116.12 155.635 116.21 155.89 116.21 156.13C116.21 156.67 115.76 157.12 115.205 157.12C114.935 157.12 114.65 156.97 114.47 156.775L111.005 152.785L109.475 154.375V155.98C109.475 156.595 108.965 157.12 108.35 157.12C107.72 157.12 107.225 156.61 107.225 155.995V147.52C107.225 146.905 107.72 146.38 108.35 146.38C108.965 146.38 109.475 146.905 109.475 147.52V151.36L113.975 146.77C114.14 146.575 114.44 146.38 114.77 146.38C115.325 146.38 115.79 146.83 115.79 147.385C115.79 147.64 115.67 147.88 115.55 148.03L112.4 151.33L115.955 155.47Z" fill="white"/>
</g>
<path d="M32.648 216.208H27.688V219.84H32.44V221.248H27.688V226H26.2V214.8H32.648V216.208ZM35.282 222.64C35.4207 223.355 35.746 223.909 36.258 224.304C36.7807 224.699 37.4207 224.896 38.178 224.896C39.234 224.896 40.002 224.507 40.482 223.728L41.666 224.4C40.8873 225.605 39.714 226.208 38.146 226.208C36.8767 226.208 35.842 225.813 35.042 225.024C34.2527 224.224 33.858 223.216 33.858 222C33.858 220.795 34.2473 219.792 35.026 218.992C35.8047 218.192 36.8127 217.792 38.05 217.792C39.2233 217.792 40.178 218.208 40.914 219.04C41.6607 219.861 42.034 220.853 42.034 222.016C42.034 222.219 42.018 222.427 41.986 222.64H35.282ZM38.05 219.104C37.3033 219.104 36.6847 219.317 36.194 219.744C35.7033 220.16 35.3993 220.72 35.282 221.424H40.626C40.5087 220.667 40.21 220.091 39.73 219.696C39.25 219.301 38.69 219.104 38.05 219.104ZM45.0261 219.344C45.4848 218.352 46.3168 217.856 47.5221 217.856V219.312C46.8395 219.28 46.2528 219.461 45.7621 219.856C45.2715 220.251 45.0261 220.885 45.0261 221.76V226H43.6341V218H45.0261V219.344ZM53.4236 219.344H51.2956V223.68C51.2956 224.075 51.3703 224.357 51.5196 224.528C51.6796 224.688 51.9196 224.773 52.2396 224.784C52.5596 224.784 52.9543 224.773 53.4236 224.752V226C52.2076 226.16 51.317 226.064 50.7516 225.712C50.1863 225.349 49.9036 224.672 49.9036 223.68V219.344H48.3196V218H49.9036V216.176L51.2956 215.76V218H53.4236V219.344ZM55.7756 216.544C55.509 216.544 55.285 216.453 55.1036 216.272C54.9223 216.091 54.8316 215.872 54.8316 215.616C54.8316 215.36 54.9223 215.141 55.1036 214.96C55.285 214.768 55.509 214.672 55.7756 214.672C56.0316 214.672 56.2503 214.768 56.4316 214.96C56.613 215.141 56.7036 215.36 56.7036 215.616C56.7036 215.872 56.613 216.091 56.4316 216.272C56.2503 216.453 56.0316 216.544 55.7756 216.544ZM55.0716 226V218H56.4636V226H55.0716ZM58.5872 226V214.32H59.9793V226H58.5872ZM62.8069 216.544C62.5402 216.544 62.3162 216.453 62.1349 216.272C61.9535 216.091 61.8629 215.872 61.8629 215.616C61.8629 215.36 61.9535 215.141 62.1349 214.96C62.3162 214.768 62.5402 214.672 62.8069 214.672C63.0629 214.672 63.2815 214.768 63.4629 214.96C63.6442 215.141 63.7349 215.36 63.7349 215.616C63.7349 215.872 63.6442 216.091 63.4629 216.272C63.2815 216.453 63.0629 216.544 62.8069 216.544ZM62.1029 226V218H63.4949V226H62.1029ZM67.2345 224.672H71.4905V226H65.3305V225.072L69.4105 219.328H65.4905V218H71.3305V218.928L67.2345 224.672ZM73.6258 222.64C73.7644 223.355 74.0898 223.909 74.6018 224.304C75.1244 224.699 75.7644 224.896 76.5218 224.896C77.5778 224.896 78.3458 224.507 78.8258 223.728L80.0098 224.4C79.2311 225.605 78.0578 226.208 76.4898 226.208C75.2204 226.208 74.1858 225.813 73.3858 225.024C72.5964 224.224 72.2018 223.216 72.2018 222C72.2018 220.795 72.5911 219.792 73.3698 218.992C74.1484 218.192 75.1564 217.792 76.3938 217.792C77.5671 217.792 78.5218 218.208 79.2578 219.04C80.0044 219.861 80.3778 220.853 80.3778 222.016C80.3778 222.219 80.3618 222.427 80.3298 222.64H73.6258ZM76.3938 219.104C75.6471 219.104 75.0284 219.317 74.5378 219.744C74.0471 220.16 73.7431 220.72 73.6258 221.424H78.9698C78.8524 220.667 78.5538 220.091 78.0738 219.696C77.5938 219.301 77.0338 219.104 76.3938 219.104ZM83.3699 219.344C83.8285 218.352 84.6605 217.856 85.8659 217.856V219.312C85.1832 219.28 84.5965 219.461 84.1059 219.856C83.6152 220.251 83.3699 220.885 83.3699 221.76V226H81.9779V218H83.3699V219.344ZM88.131 220.16C88.131 220.469 88.2857 220.72 88.595 220.912C88.9043 221.093 89.2777 221.243 89.715 221.36C90.1523 221.467 90.5897 221.595 91.027 221.744C91.4643 221.883 91.8377 222.128 92.147 222.48C92.4563 222.821 92.611 223.264 92.611 223.808C92.611 224.533 92.3283 225.115 91.763 225.552C91.2083 225.989 90.4937 226.208 89.619 226.208C88.8403 226.208 88.1737 226.037 87.619 225.696C87.0643 225.355 86.6697 224.901 86.435 224.336L87.635 223.648C87.763 224.032 88.003 224.336 88.355 224.56C88.707 224.784 89.1283 224.896 89.619 224.896C90.0777 224.896 90.4563 224.811 90.755 224.64C91.0537 224.459 91.203 224.181 91.203 223.808C91.203 223.499 91.0483 223.253 90.739 223.072C90.4297 222.88 90.0563 222.731 89.619 222.624C89.1817 222.507 88.7443 222.373 88.307 222.224C87.8697 222.075 87.4963 221.829 87.187 221.488C86.8777 221.147 86.723 220.709 86.723 220.176C86.723 219.483 86.9897 218.912 87.523 218.464C88.067 218.016 88.7443 217.792 89.555 217.792C90.2057 217.792 90.7817 217.941 91.283 218.24C91.795 218.528 92.179 218.933 92.435 219.456L91.267 220.112C90.979 219.429 90.4083 219.088 89.555 219.088C89.1603 219.088 88.8243 219.184 88.547 219.376C88.2697 219.557 88.131 219.819 88.131 220.16ZM102.467 214.8C103.502 214.8 104.36 215.147 105.043 215.84C105.736 216.523 106.083 217.376 106.083 218.4C106.083 219.413 105.736 220.267 105.043 220.96C104.36 221.653 103.502 222 102.467 222H99.8911V226H98.4031V214.8H102.467ZM102.467 220.608C103.086 220.608 103.598 220.4 104.003 219.984C104.408 219.557 104.611 219.029 104.611 218.4C104.611 217.76 104.408 217.232 104.003 216.816C103.598 216.4 103.086 216.192 102.467 216.192H99.8911V220.608H102.467ZM108.917 219.344C109.375 218.352 110.207 217.856 111.413 217.856V219.312C110.73 219.28 110.143 219.461 109.653 219.856C109.162 220.251 108.917 220.885 108.917 221.76V226H107.525V218H108.917V219.344ZM119.089 224.992C118.268 225.803 117.271 226.208 116.097 226.208C114.924 226.208 113.927 225.803 113.105 224.992C112.295 224.181 111.889 223.184 111.889 222C111.889 220.816 112.295 219.819 113.105 219.008C113.927 218.197 114.924 217.792 116.097 217.792C117.271 217.792 118.268 218.197 119.089 219.008C119.911 219.819 120.321 220.816 120.321 222C120.321 223.184 119.911 224.181 119.089 224.992ZM116.097 224.848C116.897 224.848 117.569 224.576 118.113 224.032C118.657 223.488 118.929 222.811 118.929 222C118.929 221.189 118.657 220.512 118.113 219.968C117.569 219.424 116.897 219.152 116.097 219.152C115.308 219.152 114.641 219.424 114.097 219.968C113.553 220.512 113.281 221.189 113.281 222C113.281 222.811 113.553 223.488 114.097 224.032C114.641 224.576 115.308 224.848 116.097 224.848ZM128.586 214.8H129.978V226H128.586V224.624C127.893 225.68 126.885 226.208 125.562 226.208C124.442 226.208 123.488 225.803 122.698 224.992C121.909 224.171 121.514 223.173 121.514 222C121.514 220.827 121.909 219.835 122.698 219.024C123.488 218.203 124.442 217.792 125.562 217.792C126.885 217.792 127.893 218.32 128.586 219.376V214.8ZM125.738 224.864C126.549 224.864 127.226 224.592 127.77 224.048C128.314 223.493 128.586 222.811 128.586 222C128.586 221.189 128.314 220.512 127.77 219.968C127.226 219.413 126.549 219.136 125.738 219.136C124.938 219.136 124.266 219.413 123.722 219.968C123.178 220.512 122.906 221.189 122.906 222C122.906 222.811 123.178 223.493 123.722 224.048C124.266 224.592 124.938 224.864 125.738 224.864ZM137.607 218H138.999V226H137.607V224.848C137.042 225.755 136.178 226.208 135.015 226.208C134.077 226.208 133.325 225.915 132.759 225.328C132.194 224.731 131.911 223.925 131.911 222.912V218H133.303V222.832C133.303 223.483 133.479 223.989 133.831 224.352C134.183 224.704 134.669 224.88 135.287 224.88C135.981 224.88 136.541 224.667 136.967 224.24C137.394 223.803 137.607 223.136 137.607 222.24V218ZM144.879 226.208C143.673 226.208 142.671 225.808 141.871 225.008C141.071 224.197 140.671 223.195 140.671 222C140.671 220.805 141.071 219.808 141.871 219.008C142.671 218.197 143.673 217.792 144.879 217.792C145.668 217.792 146.377 217.984 147.007 218.368C147.636 218.741 148.105 219.248 148.415 219.888L147.247 220.56C147.044 220.133 146.729 219.792 146.303 219.536C145.887 219.28 145.412 219.152 144.879 219.152C144.079 219.152 143.407 219.424 142.863 219.968C142.329 220.512 142.062 221.189 142.062 222C142.062 222.8 142.329 223.472 142.863 224.016C143.407 224.56 144.079 224.832 144.879 224.832C145.412 224.832 145.892 224.709 146.319 224.464C146.745 224.208 147.071 223.867 147.295 223.44L148.479 224.128C148.137 224.757 147.647 225.264 147.007 225.648C146.367 226.021 145.657 226.208 144.879 226.208ZM154.205 219.344H152.077V223.68C152.077 224.075 152.152 224.357 152.301 224.528C152.461 224.688 152.701 224.773 153.021 224.784C153.341 224.784 153.736 224.773 154.205 224.752V226C152.989 226.16 152.098 226.064 151.533 225.712C150.968 225.349 150.685 224.672 150.685 223.68V219.344H149.101V218H150.685V216.176L152.077 215.76V218H154.205V219.344ZM156.662 220.16C156.662 220.469 156.817 220.72 157.126 220.912C157.436 221.093 157.809 221.243 158.246 221.36C158.684 221.467 159.121 221.595 159.558 221.744C159.996 221.883 160.369 222.128 160.678 222.48C160.988 222.821 161.142 223.264 161.142 223.808C161.142 224.533 160.86 225.115 160.294 225.552C159.74 225.989 159.025 226.208 158.15 226.208C157.372 226.208 156.705 226.037 156.15 225.696C155.596 225.355 155.201 224.901 154.966 224.336L156.166 223.648C156.294 224.032 156.534 224.336 156.886 224.56C157.238 224.784 157.66 224.896 158.15 224.896C158.609 224.896 158.988 224.811 159.286 224.64C159.585 224.459 159.734 224.181 159.734 223.808C159.734 223.499 159.58 223.253 159.27 223.072C158.961 222.88 158.588 222.731 158.15 222.624C157.713 222.507 157.276 222.373 156.838 222.224C156.401 222.075 156.028 221.829 155.718 221.488C155.409 221.147 155.254 220.709 155.254 220.176C155.254 219.483 155.521 218.912 156.054 218.464C156.598 218.016 157.276 217.792 158.086 217.792C158.737 217.792 159.313 217.941 159.814 218.24C160.326 218.528 160.71 218.933 160.966 219.456L159.798 220.112C159.51 219.429 158.94 219.088 158.086 219.088C157.692 219.088 157.356 219.184 157.078 219.376C156.801 219.557 156.662 219.819 156.662 220.16Z" fill="#444444"/>
<defs>
<filter id="filter0_d_235_610" x="0" y="0" width="203" height="236" filterUnits="userSpaceOnUse" color-interpolation-filters="sRGB">
<feFlood flood-opacity="0" result="BackgroundImageFix"/>
<feColorMatrix in="SourceAlpha" type="matrix" values="0 0 0 0 0 0 0 0 0 0 0 0 0 0 0 0 0 0 127 0" result="hardAlpha"/>
<feOffset dx="8" dy="8"/>
<feGaussianBlur stdDeviation="12.5"/>
<feComposite in2="hardAlpha" operator="out"/>
<feColorMatrix type="matrix" values="0 0 0 0 0 0 0 0 0 0 0 0 0 0 0 0 0 0 0.25 0"/>
<feBlend mode="normal" in2="BackgroundImageFix" result="effect1_dropShadow_235_610"/>
<feBlend mode="normal" in="SourceGraphic" in2="effect1_dropShadow_235_610" result="shape"/>
</filter>
</defs>
</svg>
