<svg width="194" height="51" viewBox="0 0 194 51" fill="none" xmlns="http://www.w3.org/2000/svg">
<path d="M2.89704 4C2.89704 4 -2.11281 26.3187 4.15027 32.981C8.47492 37.5814 15.3378 38.211 19.1717 34.9797M2.89704 4C3.80619 6.87457 6.47327 14.1571 11.5 16C16.5267 17.8429 20 19.5 21.5 25C23 30.5 20.8901 33.5314 19.1717 34.9797M2.89704 4C2.56577 14.6597 7.59824 23.2995 10.5 28.5M19.1717 34.9797C17.9259 34.7912 16.784 34.5369 15.7363 34.2165M15.7363 34.2165C15.7363 29.5 16.5 27.5 13 21.5M15.7363 34.2165C14.6887 33.8961 12.2908 31.7094 10.5 28.5M10.5 28.5C9.27212 28.4484 6.43649 27.7092 4.15027 25" stroke="#A2D240" stroke-width="2" stroke-linecap="round"/>
<path d="M121.7 32.2866C120.396 33.5903 118.821 34.2422 116.975 34.2422C115.13 34.2422 113.548 33.5903 112.229 32.2866C110.926 30.9683 110.274 29.3862 110.274 27.5405C110.274 25.6948 110.926 24.1201 112.229 22.8164C113.548 21.498 115.13 20.8389 116.975 20.8389C118.821 20.8389 120.396 21.498 121.7 22.8164C123.018 24.1201 123.677 25.6948 123.677 27.5405C123.677 29.3862 123.018 30.9683 121.7 32.2866ZM113.152 31.3638C114.221 32.4185 115.496 32.9458 116.975 32.9458C118.455 32.9458 119.722 32.4185 120.777 31.3638C121.846 30.2944 122.381 29.02 122.381 27.5405C122.381 26.061 121.846 24.7939 120.777 23.7393C119.722 22.6699 118.455 22.1353 116.975 22.1353C115.496 22.1353 114.221 22.6699 113.152 23.7393C112.097 24.7939 111.57 26.061 111.57 27.5405C111.57 29.02 112.097 30.2944 113.152 31.3638ZM122.952 33.5391C121.311 35.1797 119.319 36 116.975 36C114.632 36 112.632 35.1797 110.977 33.5391C109.336 31.8838 108.516 29.8843 108.516 27.5405V12.7749C108.516 12.3501 108.662 11.9912 108.955 11.6982C109.248 11.4053 109.607 11.2588 110.032 11.2588C110.457 11.2588 110.816 11.4053 111.109 11.6982C111.416 11.9912 111.57 12.3501 111.57 12.7749V21.0146C113.196 19.6963 114.998 19.0371 116.975 19.0371C119.319 19.0371 121.311 19.8721 122.952 21.542C124.607 23.1973 125.435 25.1968 125.435 27.5405C125.435 29.8843 124.607 31.8838 122.952 33.5391ZM111.9 32.6162C113.306 34.0078 114.998 34.7036 116.975 34.7036C118.953 34.7036 120.638 34.0078 122.029 32.6162C123.421 31.21 124.117 29.5181 124.117 27.5405C124.117 25.563 123.421 23.8784 122.029 22.4868C120.638 21.0806 118.953 20.3774 116.975 20.3774C115.467 20.3774 114.104 20.8022 112.888 21.6519C111.673 22.5015 110.801 23.6221 110.274 25.0137V12.7749C110.274 12.6284 110.193 12.5552 110.032 12.5552C109.886 12.5552 109.812 12.6284 109.812 12.7749V27.5405C109.812 29.5181 110.508 31.21 111.9 32.6162ZM131.986 36C130.609 36 129.43 35.5166 128.449 34.5498C127.482 33.5684 126.998 32.3892 126.998 31.0122V12.7749C126.998 12.3501 127.145 11.9912 127.438 11.6982C127.731 11.4053 128.09 11.2588 128.515 11.2588C128.939 11.2588 129.298 11.4053 129.591 11.6982C129.899 11.9912 130.053 12.3501 130.053 12.7749V31.0122C130.053 31.5249 130.243 31.979 130.624 32.3745C131.019 32.7554 131.474 32.9458 131.986 32.9458C132.411 32.9458 132.77 33.0923 133.063 33.3853C133.371 33.6782 133.524 34.0371 133.524 34.4619C133.524 34.8867 133.371 35.2529 133.063 35.5605C132.77 35.8535 132.411 36 131.986 36ZM131.986 34.7036C132.133 34.7036 132.206 34.623 132.206 34.4619C132.206 34.3154 132.133 34.2422 131.986 34.2422C131.107 34.2422 130.346 33.9272 129.701 33.2974C129.071 32.6528 128.756 31.8911 128.756 31.0122V12.7749C128.756 12.6284 128.676 12.5552 128.515 12.5552C128.368 12.5552 128.295 12.6284 128.295 12.7749V31.0122C128.295 32.0229 128.654 32.8945 129.371 33.627C130.104 34.3447 130.976 34.7036 131.986 34.7036ZM140.559 36C138.23 36 136.238 35.1724 134.583 33.5171C132.927 31.8618 132.1 29.8696 132.1 27.5405C132.1 25.1968 132.927 23.1973 134.583 21.542C136.252 19.8721 138.245 19.0371 140.559 19.0371C142.903 19.0371 144.902 19.8721 146.558 21.542C148.228 23.1973 149.063 25.1968 149.063 27.5405C149.063 29.8843 148.228 31.8838 146.558 33.5391C144.902 35.1797 142.903 36 140.559 36ZM140.559 34.7036C142.537 34.7036 144.229 34.0078 145.635 32.6162C147.056 31.21 147.766 29.5181 147.766 27.5405C147.766 25.563 147.056 23.8784 145.635 22.4868C144.229 21.0806 142.537 20.3774 140.559 20.3774C138.596 20.3774 136.912 21.0806 135.505 22.4868C134.114 23.8784 133.418 25.563 133.418 27.5405C133.418 29.5181 134.114 31.21 135.505 32.6162C136.912 34.0078 138.596 34.7036 140.559 34.7036ZM145.283 32.2866C143.98 33.5903 142.405 34.2422 140.559 34.2422C138.713 34.2422 137.131 33.5903 135.813 32.2866C134.509 30.9683 133.857 29.3862 133.857 27.5405C133.857 25.6948 134.509 24.1201 135.813 22.8164C137.131 21.498 138.713 20.8389 140.559 20.8389C142.405 20.8389 143.98 21.498 145.283 22.8164C146.602 24.1201 147.261 25.6948 147.261 27.5405C147.261 29.3862 146.602 30.9683 145.283 32.2866ZM136.78 31.3638C137.82 32.4185 139.08 32.9458 140.559 32.9458C142.039 32.9458 143.306 32.4185 144.36 31.3638C145.43 30.2944 145.964 29.02 145.964 27.5405C145.964 26.061 145.43 24.7939 144.36 23.7393C143.306 22.6699 142.039 22.1353 140.559 22.1353C139.08 22.1353 137.82 22.6626 136.78 23.7173C135.74 24.772 135.22 26.0464 135.22 27.5405C135.22 29.0347 135.74 30.3091 136.78 31.3638ZM157.965 36C155.636 36 153.644 35.1724 151.988 33.5171C150.333 31.8618 149.505 29.8696 149.505 27.5405C149.505 25.1968 150.333 23.1973 151.988 21.542C153.658 19.8721 155.651 19.0371 157.965 19.0371C160.309 19.0371 162.308 19.8721 163.963 21.542C165.633 23.1973 166.468 25.1968 166.468 27.5405C166.468 29.8843 165.633 31.8838 163.963 33.5391C162.308 35.1797 160.309 36 157.965 36ZM157.965 34.7036C159.942 34.7036 161.634 34.0078 163.041 32.6162C164.462 31.21 165.172 29.5181 165.172 27.5405C165.172 25.563 164.462 23.8784 163.041 22.4868C161.634 21.0806 159.942 20.3774 157.965 20.3774C156.002 20.3774 154.317 21.0806 152.911 22.4868C151.52 23.8784 150.824 25.563 150.824 27.5405C150.824 29.5181 151.52 31.21 152.911 32.6162C154.317 34.0078 156.002 34.7036 157.965 34.7036ZM162.689 32.2866C161.385 33.5903 159.811 34.2422 157.965 34.2422C156.119 34.2422 154.537 33.5903 153.219 32.2866C151.915 30.9683 151.263 29.3862 151.263 27.5405C151.263 25.6948 151.915 24.1201 153.219 22.8164C154.537 21.498 156.119 20.8389 157.965 20.8389C159.811 20.8389 161.385 21.498 162.689 22.8164C164.007 24.1201 164.667 25.6948 164.667 27.5405C164.667 29.3862 164.007 30.9683 162.689 32.2866ZM154.186 31.3638C155.226 32.4185 156.485 32.9458 157.965 32.9458C159.444 32.9458 160.712 32.4185 161.766 31.3638C162.836 30.2944 163.37 29.02 163.37 27.5405C163.37 26.061 162.836 24.7939 161.766 23.7393C160.712 22.6699 159.444 22.1353 157.965 22.1353C156.485 22.1353 155.226 22.6626 154.186 23.7173C153.146 24.772 152.626 26.0464 152.626 27.5405C152.626 29.0347 153.146 30.3091 154.186 31.3638ZM190.092 36C189.682 36 189.323 35.8535 189.016 35.5605C188.708 35.2529 188.554 34.8867 188.554 34.4619V25.7827C188.554 24.772 188.203 23.915 187.5 23.2119C186.797 22.4941 185.94 22.1353 184.929 22.1353C183.918 22.1353 183.054 22.4941 182.336 23.2119C181.633 23.915 181.281 24.772 181.281 25.7827V34.4619C181.281 34.8867 181.128 35.2529 180.82 35.5605C180.527 35.8535 180.168 36 179.743 36C179.319 36 178.945 35.8535 178.623 35.5605C178.315 35.2529 178.161 34.8867 178.161 34.4619V25.7827C178.161 24.772 177.802 23.915 177.085 23.2119C176.382 22.4941 175.525 22.1353 174.514 22.1353C173.518 22.1353 172.661 22.4941 171.943 23.2119C171.24 23.915 170.888 24.772 170.888 25.7827V34.4619C170.888 34.8867 170.735 35.2529 170.427 35.5605C170.134 35.8535 169.775 36 169.35 36C168.925 36 168.559 35.8535 168.252 35.5605C167.959 35.2529 167.812 34.8867 167.812 34.4619V20.6191C167.812 20.1943 167.959 19.8281 168.252 19.5205C168.559 19.1982 168.925 19.0371 169.35 19.0371C169.702 19.0371 170.009 19.147 170.273 19.3667C170.551 19.5718 170.735 19.8354 170.822 20.1577C171.95 19.4106 173.181 19.0371 174.514 19.0371C176.609 19.0371 178.352 19.8647 179.743 21.52C180.359 20.7583 181.12 20.1577 182.029 19.7183C182.951 19.2642 183.918 19.0371 184.929 19.0371C186.789 19.0371 188.379 19.7036 189.697 21.0366C191.015 22.355 191.675 23.937 191.675 25.7827V34.4619C191.675 34.8867 191.513 35.2529 191.191 35.5605C190.884 35.8535 190.517 36 190.092 36ZM190.092 34.7036C190.268 34.7036 190.356 34.623 190.356 34.4619V25.7827C190.356 24.3032 189.821 23.0361 188.752 21.9814C187.697 20.9121 186.423 20.3774 184.929 20.3774C183.728 20.3774 182.651 20.7363 181.699 21.4541C180.747 22.1719 180.095 23.0874 179.743 24.2007C179.392 23.0874 178.733 22.1719 177.766 21.4541C176.814 20.7363 175.73 20.3774 174.514 20.3774C173.43 20.3774 172.441 20.6777 171.548 21.2783C170.669 21.8643 170.009 22.6479 169.57 23.6294V20.6191C169.57 20.458 169.497 20.3774 169.35 20.3774C169.204 20.3774 169.131 20.458 169.131 20.6191V34.4619C169.131 34.623 169.204 34.7036 169.35 34.7036C169.497 34.7036 169.57 34.623 169.57 34.4619V25.7827C169.57 24.4204 170.053 23.2559 171.02 22.2891C171.987 21.3223 173.152 20.8389 174.514 20.8389C175.891 20.8389 177.07 21.3223 178.051 22.2891C179.033 23.2559 179.524 24.4204 179.524 25.7827V34.4619C179.524 34.623 179.597 34.7036 179.743 34.7036C179.89 34.7036 179.963 34.623 179.963 34.4619V25.7827C179.963 24.4058 180.446 23.2412 181.413 22.2891C182.38 21.3223 183.552 20.8389 184.929 20.8389C186.306 20.8389 187.47 21.3223 188.423 22.2891C189.389 23.2412 189.873 24.4058 189.873 25.7827V34.4619C189.873 34.5205 189.895 34.5791 189.939 34.6377C189.997 34.6816 190.049 34.7036 190.092 34.7036Z" fill="#A2D240"/>
<path d="M43.2665 17.695C44.6315 17.695 45.8565 18.85 45.8565 20.215V33.69C45.8565 35.09 44.6315 36.21 43.2665 36.21C41.8665 36.21 40.7115 35.09 40.7115 33.725C40.2915 34.705 38.6115 36.245 35.8465 36.245C31.9965 36.245 27.4115 33.27 27.4115 26.9C27.4115 20.67 32.0315 17.59 35.8465 17.59C38.2615 17.59 40.1165 18.92 40.7115 20.355V20.215C40.7115 18.85 41.8665 17.695 43.2665 17.695ZM36.7915 31.87C38.5415 31.87 40.9215 30.61 40.9215 26.9C40.9215 23.225 38.5415 21.965 36.7915 21.965C34.6565 21.965 32.5215 23.645 32.5215 26.9C32.5215 30.19 34.6565 31.87 36.7915 31.87ZM67.7999 20.215V33.69C67.7999 33.9 67.7649 34.075 67.7299 34.25V35.65C67.7299 41.355 62.3399 43.175 58.6299 43.175C56.4949 43.175 54.7449 42.615 53.9749 42.3C52.8899 41.845 52.2949 41.04 52.2949 40.13C52.2949 38.94 53.2049 38.1 54.2899 38.1C54.4999 38.1 54.7799 38.1 55.2699 38.24C55.9699 38.345 57.0899 38.8 58.6649 38.8C61.3599 38.8 62.6199 37.295 62.6199 35.65V33.795C62.1299 34.81 60.4849 36.245 57.7899 36.245C53.9399 36.245 49.3549 33.27 49.3549 26.9C49.3549 20.67 53.9749 17.59 57.7899 17.59C60.2049 17.59 62.0599 18.92 62.6549 20.355V20.215C62.6549 18.85 63.8099 17.695 65.2099 17.695C66.5749 17.695 67.7999 18.85 67.7999 20.215ZM58.7349 31.87C60.4849 31.87 62.8649 30.61 62.8649 26.9C62.8649 23.225 60.4849 21.965 58.7349 21.965C56.5999 21.965 54.4649 23.645 54.4649 26.9C54.4649 30.19 56.5999 31.87 58.7349 31.87ZM82.6651 17.625C84.2401 17.625 85.0451 18.71 85.0451 19.97C85.0451 21.37 83.9601 22.35 81.7901 22.35C79.1651 22.35 77.5551 24.345 77.4501 25.57V33.655C77.4501 35.02 76.2951 36.175 74.8951 36.175C73.4951 36.175 72.3401 35.02 72.3401 33.655V20.285C72.3401 18.85 73.4951 17.695 74.8951 17.695C76.2951 17.695 77.4501 18.85 77.4501 20.285V21.685C77.5901 20.39 79.7251 17.625 82.6651 17.625ZM95.8549 17.59C99.8449 17.59 105.27 20.74 105.27 26.97C105.27 33.235 99.8449 36.245 95.8549 36.245C91.8299 36.245 86.4399 33.235 86.4399 26.97C86.4399 20.74 91.8299 17.59 95.8549 17.59ZM95.8549 22.035C93.5099 22.035 91.4799 23.925 91.4799 26.97C91.4799 29.91 93.5099 31.8 95.8549 31.8C98.1649 31.8 100.195 29.91 100.195 26.97C100.195 23.925 98.1649 22.035 95.8549 22.035Z" fill="#1B8B00"/>
</svg>
