<svg width="203" height="236" viewBox="0 0 203 236" fill="none" xmlns="http://www.w3.org/2000/svg">
<g filter="url(#filter0_d_235_620)">
<rect x="17" y="17" width="153" height="186" rx="20" fill="#F6F6F6"/>
<path d="M103.705 57C108.458 57 112.311 60.8479 112.311 65.5946V67.8865H88.7869C88.1531 67.8865 87.6393 67.3734 87.6393 66.7405C87.6393 66.1076 88.1531 65.5946 88.7869 65.5946H95.0983C95.0983 60.8479 98.9516 57 103.705 57Z" fill="#616060"/>
<path fill-rule="evenodd" clip-rule="evenodd" d="M87.6211 70.1784L87.6396 70.7693C87.7964 75.7681 88.732 78.971 90.9157 80.9683C93.0807 82.9485 96.3468 83.6197 100.796 83.9283L101.41 83.9709V80.7559C102.14 80.9572 102.91 81.0648 103.705 81.0648C108.458 81.0648 112.311 77.2169 112.311 72.4702V70.1784H87.6211ZM95.0983 71.3243H88.8093C89.0179 75.8884 89.9404 78.5222 91.6908 80.1232C93.4479 81.7304 96.1561 82.4118 100.262 82.7394V80.3497C97.2226 79.0234 95.0983 75.9946 95.0983 72.4702V71.3243Z" fill="#616060"/>
<path d="M106.03 82.5136C110.616 81.2647 115.348 83.9646 116.598 88.544L119.827 100.366L108.285 97.2628C108.324 96.9746 108.254 96.6715 108.066 96.4205C107.685 95.9142 106.966 95.8116 106.459 96.1913L105.888 96.6186L105.725 96.5745C105.113 96.4099 104.483 96.772 104.318 97.3831C104.279 97.5294 104.269 97.6766 104.287 97.8183L101.869 99.6291C101.593 99.836 101.436 100.143 101.413 100.462L92.2586 107.527L75.7947 111.343C73.9427 111.773 72.0928 110.621 71.6629 108.772C71.2331 106.922 72.386 105.075 74.2381 104.646L89.2376 101.169L99.9486 92.9023C98.8061 88.3748 101.5 83.7476 106.03 82.5136Z" fill="#616060"/>
<path d="M106.371 99.1219L103.246 101.463C102.977 101.664 102.648 101.73 102.342 101.671L106.877 118.278C107.108 119.124 107.459 119.907 107.905 120.612L97.9672 132.899V155.551C97.9672 158.716 100.536 161.281 103.705 161.281C106.874 161.281 109.443 158.716 109.443 155.551V136.949L111.851 133.971L113.228 144.148L131.516 159.891C133.916 161.957 137.539 161.689 139.608 159.292C141.677 156.896 141.409 153.278 139.009 151.211L124.017 138.306L122.859 129.747C122.971 129.725 123.081 129.686 123.187 129.629C127.598 127.237 130.45 124.804 132.35 121.479C134.226 118.195 135.107 114.155 135.826 108.718C135.841 108.603 135.839 108.491 135.821 108.383C138.036 107.117 139.205 104.476 138.503 101.903L133.592 83.9229L122.618 87.2947L127.432 104.918C128.173 107.631 130.746 109.355 133.456 109.121C132.76 114.142 131.923 117.602 130.357 120.343C128.801 123.066 126.462 125.183 122.538 127.37L121.752 121.567C123.517 119.48 124.258 116.589 123.484 113.755L120.499 102.828C120.352 102.848 120.198 102.839 120.046 102.798L106.371 99.1219Z" fill="#616060"/>
<path d="M132.84 81.756L122.092 85.0587C121.822 82.3281 123.554 79.721 126.294 78.9748C128.91 78.2623 131.597 79.4775 132.84 81.756Z" fill="#616060"/>
<path d="M71.3957 112.618C71.7348 112.084 71.5757 111.376 71.0402 111.037C70.5048 110.699 69.7959 110.858 69.4568 111.392L47.6535 145.771C47.3144 146.305 47.4736 147.013 48.009 147.352C48.5444 147.69 49.2534 147.531 49.5925 146.997L71.3957 112.618Z" fill="#616060"/>
<path d="M47.7276 148.985L48.429 150.541C48.5591 150.83 48.4302 151.169 48.1412 151.299C47.9499 151.385 47.7363 151.358 47.5761 151.245C47.4305 151.414 47.1929 151.49 46.9668 151.418C46.7551 151.351 46.6097 151.172 46.5749 150.967C46.382 150.97 46.1924 150.875 46.0819 150.7C45.9127 150.433 45.9927 150.079 46.2606 149.91L47.7276 148.985Z" fill="#616060"/>
<path d="M45.2352 151.234C45.4044 151.502 45.3244 151.856 45.0564 152.025L43.2395 153.171C42.9716 153.34 42.6172 153.26 42.448 152.992C42.2788 152.725 42.3588 152.371 42.6267 152.202L44.4437 151.056C44.7116 150.887 45.066 150.967 45.2352 151.234Z" fill="#616060"/>
<path d="M48.531 152.164C48.82 152.034 49.1596 152.163 49.2897 152.451L50.1503 154.361C50.2804 154.65 50.1515 154.989 49.8626 155.119C49.5736 155.249 49.2339 155.12 49.1039 154.831L48.2432 152.921C48.1132 152.633 48.242 152.294 48.531 152.164Z" fill="#616060"/>
<path d="M46.6453 152.427C46.9473 152.523 47.1142 152.845 47.0181 153.147L46.3487 155.247C46.2527 155.549 45.93 155.716 45.628 155.62C45.326 155.524 45.1591 155.202 45.2552 154.9L45.9246 152.799C46.0207 152.498 46.3434 152.331 46.6453 152.427Z" fill="#616060"/>
<path d="M41.6013 153.526C41.7705 153.794 41.6905 154.148 41.4226 154.317L39.6056 155.463C39.3377 155.632 38.9833 155.552 38.8141 155.284C38.6449 155.017 38.7249 154.663 38.9929 154.494L40.8098 153.348C41.0777 153.179 41.4321 153.259 41.6013 153.526Z" fill="#616060"/>
<path d="M37.9674 155.818C38.1366 156.086 38.0566 156.44 37.7887 156.609L36.8802 157.182C36.6123 157.351 36.2579 157.271 36.0887 157.003C35.9195 156.736 35.9995 156.382 36.2675 156.213L37.1759 155.64C37.4438 155.471 37.7982 155.551 37.9674 155.818Z" fill="#616060"/>
<path d="M50.2523 155.984C50.5413 155.854 50.881 155.982 51.011 156.271L51.8716 158.181C52.0017 158.47 51.8728 158.809 51.5839 158.939C51.2949 159.068 50.9552 158.94 50.8252 158.651L49.9645 156.741C49.8345 156.453 49.9633 156.114 50.2523 155.984Z" fill="#616060"/>
<path d="M45.3065 156.629C45.6085 156.725 45.7754 157.047 45.6793 157.348L45.0099 159.449C44.9139 159.751 44.5912 159.917 44.2892 159.822C43.9872 159.726 43.8203 159.403 43.9164 159.102L44.5858 157.001C44.6819 156.699 45.0046 156.533 45.3065 156.629Z" fill="#616060"/>
<path d="M51.9736 159.803C52.2626 159.674 52.6023 159.802 52.7323 160.091L53.1626 161.046C53.2927 161.334 53.1638 161.674 52.8748 161.803C52.5859 161.933 52.2462 161.805 52.1162 161.516L51.6858 160.561C51.5558 160.273 51.6846 159.933 51.9736 159.803Z" fill="#616060"/>
<path d="M43.9677 160.83C44.2697 160.926 44.4366 161.249 44.3405 161.55L44.0058 162.601C43.9098 162.902 43.5871 163.069 43.2851 162.973C42.9831 162.877 42.8162 162.555 42.9123 162.253L43.247 161.203C43.3431 160.901 43.6658 160.734 43.9677 160.83Z" fill="#616060"/>
<path d="M103.705 57C108.458 57 112.311 60.8479 112.311 65.5946V67.8865H88.7869C88.1531 67.8865 87.6393 67.3734 87.6393 66.7405C87.6393 66.1076 88.1531 65.5946 88.7869 65.5946H95.0983C95.0983 60.8479 98.9516 57 103.705 57Z" stroke="#DADADA" stroke-linecap="round"/>
<path fill-rule="evenodd" clip-rule="evenodd" d="M87.6211 70.1784L87.6396 70.7693C87.7964 75.7681 88.732 78.971 90.9157 80.9683C93.0807 82.9485 96.3468 83.6197 100.796 83.9283L101.41 83.9709V80.7559C102.14 80.9572 102.91 81.0648 103.705 81.0648C108.458 81.0648 112.311 77.2169 112.311 72.4702V70.1784H87.6211ZM95.0983 71.3243H88.8093C89.0179 75.8884 89.9404 78.5222 91.6908 80.1232C93.4479 81.7304 96.1561 82.4118 100.262 82.7394V80.3497C97.2226 79.0234 95.0983 75.9946 95.0983 72.4702V71.3243Z" stroke="#DADADA" stroke-linecap="round"/>
<path d="M106.03 82.5136C110.616 81.2647 115.348 83.9646 116.598 88.544L119.827 100.366L108.285 97.2628C108.324 96.9746 108.254 96.6715 108.066 96.4205C107.685 95.9142 106.966 95.8116 106.459 96.1913L105.888 96.6186L105.725 96.5745C105.113 96.4099 104.483 96.772 104.318 97.3831C104.279 97.5294 104.269 97.6766 104.287 97.8183L101.869 99.6291C101.593 99.836 101.436 100.143 101.413 100.462L92.2586 107.527L75.7947 111.343C73.9427 111.773 72.0928 110.621 71.6629 108.772C71.2331 106.922 72.386 105.075 74.2381 104.646L89.2376 101.169L99.9486 92.9023C98.8061 88.3748 101.5 83.7476 106.03 82.5136Z" stroke="#DADADA" stroke-linecap="round"/>
<path d="M106.371 99.1219L103.246 101.463C102.977 101.664 102.648 101.73 102.342 101.671L106.877 118.278C107.108 119.124 107.459 119.907 107.905 120.612L97.9672 132.899V155.551C97.9672 158.716 100.536 161.281 103.705 161.281C106.874 161.281 109.443 158.716 109.443 155.551V136.949L111.851 133.971L113.228 144.148L131.516 159.891C133.916 161.957 137.539 161.689 139.608 159.292C141.677 156.896 141.409 153.278 139.009 151.211L124.017 138.306L122.859 129.747C122.971 129.725 123.081 129.686 123.187 129.629C127.598 127.237 130.45 124.804 132.35 121.479C134.226 118.195 135.107 114.155 135.826 108.718C135.841 108.603 135.839 108.491 135.821 108.383C138.036 107.117 139.205 104.476 138.503 101.903L133.592 83.9229L122.618 87.2947L127.432 104.918C128.173 107.631 130.746 109.355 133.456 109.121C132.76 114.142 131.923 117.602 130.357 120.343C128.801 123.066 126.462 125.183 122.538 127.37L121.752 121.567C123.517 119.48 124.258 116.589 123.484 113.755L120.499 102.828C120.352 102.848 120.198 102.839 120.046 102.798L106.371 99.1219Z" stroke="#DADADA" stroke-linecap="round"/>
<path d="M132.84 81.756L122.092 85.0587C121.822 82.3281 123.554 79.721 126.294 78.9748C128.91 78.2623 131.597 79.4775 132.84 81.756Z" stroke="#DADADA" stroke-linecap="round"/>
<path d="M71.3957 112.618C71.7348 112.084 71.5757 111.376 71.0402 111.037C70.5048 110.699 69.7959 110.858 69.4568 111.392L47.6535 145.771C47.3144 146.305 47.4736 147.013 48.009 147.352C48.5444 147.69 49.2534 147.531 49.5925 146.997L71.3957 112.618Z" stroke="#DADADA" stroke-linecap="round"/>
<path d="M47.7276 148.985L48.429 150.541C48.5591 150.83 48.4302 151.169 48.1412 151.299C47.9499 151.385 47.7363 151.358 47.5761 151.245C47.4305 151.414 47.1929 151.49 46.9668 151.418C46.7551 151.351 46.6097 151.172 46.5749 150.967C46.382 150.97 46.1924 150.875 46.0819 150.7C45.9127 150.433 45.9927 150.079 46.2606 149.91L47.7276 148.985Z" stroke="#DADADA" stroke-linecap="round"/>
<path d="M45.2352 151.234C45.4044 151.502 45.3244 151.856 45.0564 152.025L43.2395 153.171C42.9716 153.34 42.6172 153.26 42.448 152.992C42.2788 152.725 42.3588 152.371 42.6267 152.202L44.4437 151.056C44.7116 150.887 45.066 150.967 45.2352 151.234Z" stroke="#DADADA" stroke-linecap="round"/>
<path d="M48.531 152.164C48.82 152.034 49.1596 152.163 49.2897 152.451L50.1503 154.361C50.2804 154.65 50.1515 154.989 49.8626 155.119C49.5736 155.249 49.2339 155.12 49.1039 154.831L48.2432 152.921C48.1132 152.633 48.242 152.294 48.531 152.164Z" stroke="#DADADA" stroke-linecap="round"/>
<path d="M46.6453 152.427C46.9473 152.523 47.1142 152.845 47.0181 153.147L46.3487 155.247C46.2527 155.549 45.93 155.716 45.628 155.62C45.326 155.524 45.1591 155.202 45.2552 154.9L45.9246 152.799C46.0207 152.498 46.3434 152.331 46.6453 152.427Z" stroke="#DADADA" stroke-linecap="round"/>
<path d="M41.6013 153.526C41.7705 153.794 41.6905 154.148 41.4226 154.317L39.6056 155.463C39.3377 155.632 38.9833 155.552 38.8141 155.284C38.6449 155.017 38.7249 154.663 38.9929 154.494L40.8098 153.348C41.0777 153.179 41.4321 153.259 41.6013 153.526Z" stroke="#DADADA" stroke-linecap="round"/>
<path d="M37.9674 155.818C38.1366 156.086 38.0566 156.44 37.7887 156.609L36.8802 157.182C36.6123 157.351 36.2579 157.271 36.0887 157.003C35.9195 156.736 35.9995 156.382 36.2675 156.213L37.1759 155.64C37.4438 155.471 37.7982 155.551 37.9674 155.818Z" stroke="#DADADA" stroke-linecap="round"/>
<path d="M50.2523 155.984C50.5413 155.854 50.881 155.982 51.011 156.271L51.8716 158.181C52.0017 158.47 51.8728 158.809 51.5839 158.939C51.2949 159.068 50.9552 158.94 50.8252 158.651L49.9645 156.741C49.8345 156.453 49.9633 156.114 50.2523 155.984Z" stroke="#DADADA" stroke-linecap="round"/>
<path d="M45.3065 156.629C45.6085 156.725 45.7754 157.047 45.6793 157.348L45.0099 159.449C44.9139 159.751 44.5912 159.917 44.2892 159.822C43.9872 159.726 43.8203 159.403 43.9164 159.102L44.5858 157.001C44.6819 156.699 45.0046 156.533 45.3065 156.629Z" stroke="#DADADA" stroke-linecap="round"/>
<path d="M51.9736 159.803C52.2626 159.674 52.6023 159.802 52.7323 160.091L53.1626 161.046C53.2927 161.334 53.1638 161.674 52.8748 161.803C52.5859 161.933 52.2462 161.805 52.1162 161.516L51.6858 160.561C51.5558 160.273 51.6846 159.933 51.9736 159.803Z" stroke="#DADADA" stroke-linecap="round"/>
<path d="M43.9677 160.83C44.2697 160.926 44.4366 161.249 44.3405 161.55L44.0058 162.601C43.9098 162.902 43.5871 163.069 43.2851 162.973C42.9831 162.877 42.8162 162.555 42.9123 162.253L43.247 161.203C43.3431 160.901 43.6658 160.734 43.9677 160.83Z" stroke="#DADADA" stroke-linecap="round"/>
</g>
<path d="M27.764 214.8C28.7987 214.8 29.6573 215.147 30.34 215.84C31.0333 216.523 31.38 217.376 31.38 218.4C31.38 219.413 31.0333 220.267 30.34 220.96C29.6573 221.653 28.7987 222 27.764 222H25.188V226H23.7V214.8H27.764ZM27.764 220.608C28.3827 220.608 28.8947 220.4 29.3 219.984C29.7053 219.557 29.908 219.029 29.908 218.4C29.908 217.76 29.7053 217.232 29.3 216.816C28.8947 216.4 28.3827 216.192 27.764 216.192H25.188V220.608H27.764ZM33.3601 222.64C33.4988 223.355 33.8241 223.909 34.3361 224.304C34.8588 224.699 35.4988 224.896 36.2561 224.896C37.3121 224.896 38.0801 224.507 38.5601 223.728L39.7441 224.4C38.9655 225.605 37.7921 226.208 36.2241 226.208C34.9548 226.208 33.9201 225.813 33.1201 225.024C32.3308 224.224 31.9361 223.216 31.9361 222C31.9361 220.795 32.3255 219.792 33.1041 218.992C33.8828 218.192 34.8908 217.792 36.1281 217.792C37.3015 217.792 38.2561 218.208 38.9921 219.04C39.7388 219.861 40.1121 220.853 40.1121 222.016C40.1121 222.219 40.0961 222.427 40.0641 222.64H33.3601ZM36.1281 219.104C35.3815 219.104 34.7628 219.317 34.2721 219.744C33.7815 220.16 33.4775 220.72 33.3601 221.424H38.7041C38.5868 220.667 38.2881 220.091 37.8081 219.696C37.3281 219.301 36.7681 219.104 36.1281 219.104ZM42.5998 220.16C42.5998 220.469 42.7544 220.72 43.0638 220.912C43.3731 221.093 43.7464 221.243 44.1838 221.36C44.6211 221.467 45.0584 221.595 45.4958 221.744C45.9331 221.883 46.3064 222.128 46.6158 222.48C46.9251 222.821 47.0798 223.264 47.0798 223.808C47.0798 224.533 46.7971 225.115 46.2318 225.552C45.6771 225.989 44.9624 226.208 44.0878 226.208C43.3091 226.208 42.6424 226.037 42.0878 225.696C41.5331 225.355 41.1384 224.901 40.9038 224.336L42.1038 223.648C42.2318 224.032 42.4718 224.336 42.8238 224.56C43.1758 224.784 43.5971 224.896 44.0878 224.896C44.5464 224.896 44.9251 224.811 45.2238 224.64C45.5224 224.459 45.6718 224.181 45.6718 223.808C45.6718 223.499 45.5171 223.253 45.2078 223.072C44.8984 222.88 44.5251 222.731 44.0878 222.624C43.6504 222.507 43.2131 222.373 42.7758 222.224C42.3384 222.075 41.9651 221.829 41.6558 221.488C41.3464 221.147 41.1918 220.709 41.1918 220.176C41.1918 219.483 41.4584 218.912 41.9918 218.464C42.5358 218.016 43.2131 217.792 44.0238 217.792C44.6744 217.792 45.2504 217.941 45.7518 218.24C46.2638 218.528 46.6478 218.933 46.9038 219.456L45.7358 220.112C45.4478 219.429 44.8771 219.088 44.0238 219.088C43.6291 219.088 43.2931 219.184 43.0158 219.376C42.7384 219.557 42.5998 219.819 42.5998 220.16ZM52.7674 219.344H50.6394V223.68C50.6394 224.075 50.714 224.357 50.8634 224.528C51.0234 224.688 51.2634 224.773 51.5834 224.784C51.9034 224.784 52.298 224.773 52.7674 224.752V226C51.5514 226.16 50.6607 226.064 50.0954 225.712C49.53 225.349 49.2474 224.672 49.2474 223.68V219.344H47.6634V218H49.2474V216.176L50.6394 215.76V218H52.7674V219.344ZM55.1194 216.544C54.8527 216.544 54.6287 216.453 54.4474 216.272C54.266 216.091 54.1754 215.872 54.1754 215.616C54.1754 215.36 54.266 215.141 54.4474 214.96C54.6287 214.768 54.8527 214.672 55.1194 214.672C55.3754 214.672 55.594 214.768 55.7754 214.96C55.9567 215.141 56.0474 215.36 56.0474 215.616C56.0474 215.872 55.9567 216.091 55.7754 216.272C55.594 216.453 55.3754 216.544 55.1194 216.544ZM54.4154 226V218H55.8074V226H54.4154ZM61.691 226.208C60.4857 226.208 59.483 225.808 58.683 225.008C57.883 224.197 57.483 223.195 57.483 222C57.483 220.805 57.883 219.808 58.683 219.008C59.483 218.197 60.4857 217.792 61.691 217.792C62.4803 217.792 63.1897 217.984 63.819 218.368C64.4483 218.741 64.9177 219.248 65.227 219.888L64.059 220.56C63.8563 220.133 63.5417 219.792 63.115 219.536C62.699 219.28 62.2243 219.152 61.691 219.152C60.891 219.152 60.219 219.424 59.675 219.968C59.1417 220.512 58.875 221.189 58.875 222C58.875 222.8 59.1417 223.472 59.675 224.016C60.219 224.56 60.891 224.832 61.691 224.832C62.2243 224.832 62.7043 224.709 63.131 224.464C63.5577 224.208 63.883 223.867 64.107 223.44L65.291 224.128C64.9497 224.757 64.459 225.264 63.819 225.648C63.179 226.021 62.4697 226.208 61.691 226.208ZM67.3694 216.544C67.1027 216.544 66.8787 216.453 66.6974 216.272C66.516 216.091 66.4254 215.872 66.4254 215.616C66.4254 215.36 66.516 215.141 66.6974 214.96C66.8787 214.768 67.1027 214.672 67.3694 214.672C67.6254 214.672 67.844 214.768 68.0254 214.96C68.2067 215.141 68.2974 215.36 68.2974 215.616C68.2974 215.872 68.2067 216.091 68.0254 216.272C67.844 216.453 67.6254 216.544 67.3694 216.544ZM66.6654 226V218H68.0574V226H66.6654ZM76.805 214.8H78.197V226H76.805V224.624C76.1117 225.68 75.1037 226.208 73.781 226.208C72.661 226.208 71.7063 225.803 70.917 224.992C70.1277 224.171 69.733 223.173 69.733 222C69.733 220.827 70.1277 219.835 70.917 219.024C71.7063 218.203 72.661 217.792 73.781 217.792C75.1037 217.792 76.1117 218.32 76.805 219.376V214.8ZM73.957 224.864C74.7677 224.864 75.445 224.592 75.989 224.048C76.533 223.493 76.805 222.811 76.805 222C76.805 221.189 76.533 220.512 75.989 219.968C75.445 219.413 74.7677 219.136 73.957 219.136C73.157 219.136 72.485 219.413 71.941 219.968C71.397 220.512 71.125 221.189 71.125 222C71.125 222.811 71.397 223.493 71.941 224.048C72.485 224.592 73.157 224.864 73.957 224.864ZM81.282 222.64C81.4207 223.355 81.746 223.909 82.258 224.304C82.7807 224.699 83.4207 224.896 84.178 224.896C85.234 224.896 86.002 224.507 86.482 223.728L87.666 224.4C86.8873 225.605 85.714 226.208 84.146 226.208C82.8767 226.208 81.842 225.813 81.042 225.024C80.2527 224.224 79.858 223.216 79.858 222C79.858 220.795 80.2473 219.792 81.026 218.992C81.8047 218.192 82.8127 217.792 84.05 217.792C85.2233 217.792 86.178 218.208 86.914 219.04C87.6607 219.861 88.034 220.853 88.034 222.016C88.034 222.219 88.018 222.427 87.986 222.64H81.282ZM84.05 219.104C83.3033 219.104 82.6847 219.317 82.194 219.744C81.7033 220.16 81.3993 220.72 81.282 221.424H86.626C86.5087 220.667 86.21 220.091 85.73 219.696C85.25 219.301 84.69 219.104 84.05 219.104ZM90.5216 220.16C90.5216 220.469 90.6763 220.72 90.9856 220.912C91.295 221.093 91.6683 221.243 92.1056 221.36C92.543 221.467 92.9803 221.595 93.4176 221.744C93.855 221.883 94.2283 222.128 94.5376 222.48C94.847 222.821 95.0016 223.264 95.0016 223.808C95.0016 224.533 94.719 225.115 94.1536 225.552C93.599 225.989 92.8843 226.208 92.0096 226.208C91.231 226.208 90.5643 226.037 90.0096 225.696C89.455 225.355 89.0603 224.901 88.8256 224.336L90.0256 223.648C90.1536 224.032 90.3936 224.336 90.7456 224.56C91.0976 224.784 91.519 224.896 92.0096 224.896C92.4683 224.896 92.847 224.811 93.1456 224.64C93.4443 224.459 93.5936 224.181 93.5936 223.808C93.5936 223.499 93.439 223.253 93.1296 223.072C92.8203 222.88 92.447 222.731 92.0096 222.624C91.5723 222.507 91.135 222.373 90.6976 222.224C90.2603 222.075 89.887 221.829 89.5776 221.488C89.2683 221.147 89.1136 220.709 89.1136 220.176C89.1136 219.483 89.3803 218.912 89.9136 218.464C90.4576 218.016 91.135 217.792 91.9456 217.792C92.5963 217.792 93.1723 217.941 93.6736 218.24C94.1856 218.528 94.5696 218.933 94.8256 219.456L93.6576 220.112C93.3696 219.429 92.799 219.088 91.9456 219.088C91.551 219.088 91.215 219.184 90.9376 219.376C90.6603 219.557 90.5216 219.819 90.5216 220.16ZM104.858 214.8C105.892 214.8 106.751 215.147 107.434 215.84C108.127 216.523 108.474 217.376 108.474 218.4C108.474 219.413 108.127 220.267 107.434 220.96C106.751 221.653 105.892 222 104.858 222H102.282V226H100.794V214.8H104.858ZM104.858 220.608C105.476 220.608 105.988 220.4 106.394 219.984C106.799 219.557 107.002 219.029 107.002 218.4C107.002 217.76 106.799 217.232 106.394 216.816C105.988 216.4 105.476 216.192 104.858 216.192H102.282V220.608H104.858ZM111.307 219.344C111.766 218.352 112.598 217.856 113.803 217.856V219.312C113.121 219.28 112.534 219.461 112.043 219.856C111.553 220.251 111.307 220.885 111.307 221.76V226H109.915V218H111.307V219.344ZM121.48 224.992C120.659 225.803 119.661 226.208 118.488 226.208C117.315 226.208 116.317 225.803 115.496 224.992C114.685 224.181 114.28 223.184 114.28 222C114.28 220.816 114.685 219.819 115.496 219.008C116.317 218.197 117.315 217.792 118.488 217.792C119.661 217.792 120.659 218.197 121.48 219.008C122.301 219.819 122.712 220.816 122.712 222C122.712 223.184 122.301 224.181 121.48 224.992ZM118.488 224.848C119.288 224.848 119.96 224.576 120.504 224.032C121.048 223.488 121.32 222.811 121.32 222C121.32 221.189 121.048 220.512 120.504 219.968C119.96 219.424 119.288 219.152 118.488 219.152C117.699 219.152 117.032 219.424 116.488 219.968C115.944 220.512 115.672 221.189 115.672 222C115.672 222.811 115.944 223.488 116.488 224.032C117.032 224.576 117.699 224.848 118.488 224.848ZM130.977 214.8H132.369V226H130.977V224.624C130.284 225.68 129.276 226.208 127.953 226.208C126.833 226.208 125.878 225.803 125.089 224.992C124.3 224.171 123.905 223.173 123.905 222C123.905 220.827 124.3 219.835 125.089 219.024C125.878 218.203 126.833 217.792 127.953 217.792C129.276 217.792 130.284 218.32 130.977 219.376V214.8ZM128.129 224.864C128.94 224.864 129.617 224.592 130.161 224.048C130.705 223.493 130.977 222.811 130.977 222C130.977 221.189 130.705 220.512 130.161 219.968C129.617 219.413 128.94 219.136 128.129 219.136C127.329 219.136 126.657 219.413 126.113 219.968C125.569 220.512 125.297 221.189 125.297 222C125.297 222.811 125.569 223.493 126.113 224.048C126.657 224.592 127.329 224.864 128.129 224.864ZM139.998 218H141.39V226H139.998V224.848C139.433 225.755 138.569 226.208 137.406 226.208C136.467 226.208 135.715 225.915 135.15 225.328C134.585 224.731 134.302 223.925 134.302 222.912V218H135.694V222.832C135.694 223.483 135.87 223.989 136.222 224.352C136.574 224.704 137.059 224.88 137.678 224.88C138.371 224.88 138.931 224.667 139.358 224.24C139.785 223.803 139.998 223.136 139.998 222.24V218ZM147.269 226.208C146.064 226.208 145.061 225.808 144.261 225.008C143.461 224.197 143.061 223.195 143.061 222C143.061 220.805 143.461 219.808 144.261 219.008C145.061 218.197 146.064 217.792 147.269 217.792C148.058 217.792 148.768 217.984 149.397 218.368C150.026 218.741 150.496 219.248 150.805 219.888L149.637 220.56C149.434 220.133 149.12 219.792 148.693 219.536C148.277 219.28 147.802 219.152 147.269 219.152C146.469 219.152 145.797 219.424 145.253 219.968C144.72 220.512 144.453 221.189 144.453 222C144.453 222.8 144.72 223.472 145.253 224.016C145.797 224.56 146.469 224.832 147.269 224.832C147.802 224.832 148.282 224.709 148.709 224.464C149.136 224.208 149.461 223.867 149.685 223.44L150.869 224.128C150.528 224.757 150.037 225.264 149.397 225.648C148.757 226.021 148.048 226.208 147.269 226.208ZM156.596 219.344H154.468V223.68C154.468 224.075 154.542 224.357 154.692 224.528C154.852 224.688 155.092 224.773 155.411 224.784C155.731 224.784 156.126 224.773 156.596 224.752V226C155.38 226.16 154.489 226.064 153.924 225.712C153.358 225.349 153.076 224.672 153.076 223.68V219.344H151.492V218H153.076V216.176L154.468 215.76V218H156.596V219.344ZM159.053 220.16C159.053 220.469 159.208 220.72 159.517 220.912C159.826 221.093 160.2 221.243 160.637 221.36C161.074 221.467 161.512 221.595 161.949 221.744C162.386 221.883 162.76 222.128 163.069 222.48C163.378 222.821 163.533 223.264 163.533 223.808C163.533 224.533 163.25 225.115 162.685 225.552C162.13 225.989 161.416 226.208 160.541 226.208C159.762 226.208 159.096 226.037 158.541 225.696C157.986 225.355 157.592 224.901 157.357 224.336L158.557 223.648C158.685 224.032 158.925 224.336 159.277 224.56C159.629 224.784 160.05 224.896 160.541 224.896C161 224.896 161.378 224.811 161.677 224.64C161.976 224.459 162.125 224.181 162.125 223.808C162.125 223.499 161.97 223.253 161.661 223.072C161.352 222.88 160.978 222.731 160.541 222.624C160.104 222.507 159.666 222.373 159.229 222.224C158.792 222.075 158.418 221.829 158.109 221.488C157.8 221.147 157.645 220.709 157.645 220.176C157.645 219.483 157.912 218.912 158.445 218.464C158.989 218.016 159.666 217.792 160.477 217.792C161.128 217.792 161.704 217.941 162.205 218.24C162.717 218.528 163.101 218.933 163.357 219.456L162.189 220.112C161.901 219.429 161.33 219.088 160.477 219.088C160.082 219.088 159.746 219.184 159.469 219.376C159.192 219.557 159.053 219.819 159.053 220.16Z" fill="#444444"/>
<defs>
<filter id="filter0_d_235_620" x="0" y="0" width="203" height="236" filterUnits="userSpaceOnUse" color-interpolation-filters="sRGB">
<feFlood flood-opacity="0" result="BackgroundImageFix"/>
<feColorMatrix in="SourceAlpha" type="matrix" values="0 0 0 0 0 0 0 0 0 0 0 0 0 0 0 0 0 0 127 0" result="hardAlpha"/>
<feOffset dx="8" dy="8"/>
<feGaussianBlur stdDeviation="12.5"/>
<feComposite in2="hardAlpha" operator="out"/>
<feColorMatrix type="matrix" values="0 0 0 0 0 0 0 0 0 0 0 0 0 0 0 0 0 0 0.25 0"/>
<feBlend mode="normal" in2="BackgroundImageFix" result="effect1_dropShadow_235_620"/>
<feBlend mode="normal" in="SourceGraphic" in2="effect1_dropShadow_235_620" result="shape"/>
</filter>
</defs>
</svg>
