<svg width="203" height="236" viewBox="0 0 203 236" fill="none" xmlns="http://www.w3.org/2000/svg">
<g filter="url(#filter0_d_235_554)">
<rect x="17" y="17" width="153" height="186" rx="20" fill="#F6F6F6"/>
<path fill-rule="evenodd" clip-rule="evenodd" d="M118.933 39.8456L136.477 95.8951L144.179 93.7306L126.635 37.681L132.616 36L150.16 92.0497L90.0742 108.937L86.5305 107.806L68.8648 53.9175L118.933 39.8456ZM49 59.5006L61.1625 56.0823L77.1352 104.806L61.6318 99.8564L49 59.5006ZM51.0964 157.558C50.4243 157.947 49.9979 158.57 50.0042 159.67C50.0104 160.762 50.4487 161.392 51.148 161.789C51.9248 162.23 53.1191 162.427 54.6435 162.322C57.2018 162.147 60.3287 161.144 63.0159 159.688C60.2448 158.213 57.089 157.203 54.5359 157.027C53.0202 156.923 51.8491 157.122 51.0964 157.558ZM54.6754 155.032C58.0802 155.267 62.2429 156.772 65.5272 158.829L66.8578 159.662L65.5384 160.516C62.3523 162.577 58.2015 164.082 54.7787 164.318C53.0764 164.435 51.4254 164.247 50.1596 163.529C48.8162 162.766 48.0144 161.464 48.0042 159.683C47.9941 157.909 48.7645 156.598 50.0952 155.828C51.3454 155.103 52.9832 154.915 54.6754 155.032ZM67.2578 135.261C67.7188 134.636 67.8612 133.894 67.4168 132.889C66.9755 131.89 66.3219 131.487 65.5224 131.402C64.6343 131.308 63.4603 131.603 62.1043 132.307C59.8287 133.489 57.3613 135.656 55.4783 138.063C58.6075 138.31 61.9044 137.977 64.3156 137.12C65.7472 136.611 66.7416 135.961 67.2578 135.261ZM64.9837 139.005C61.7681 140.148 57.3505 140.429 53.5183 139.853L51.9657 139.62L52.8349 138.311C54.934 135.149 58.1397 132.113 61.1843 130.532C62.6986 129.745 64.2874 129.259 65.7347 129.412C67.2707 129.575 68.5254 130.449 69.2454 132.079C69.9623 133.701 69.7789 135.21 68.8663 136.448C68.0089 137.611 66.582 138.437 64.9837 139.005ZM60.7284 146.617C60.2218 147.206 60.0241 147.935 60.3916 148.971C60.7567 150 61.378 150.452 62.1689 150.596C63.0474 150.757 64.2403 150.551 65.6454 149.95C68.0034 148.943 70.6266 146.968 72.6852 144.708C69.5834 144.227 66.2709 144.311 63.802 144.985C62.3363 145.385 61.2958 145.958 60.7284 146.617ZM63.2774 143.055C66.57 142.157 70.9961 142.209 74.7742 143.071L76.3049 143.42L75.3397 144.66C73.009 147.655 69.5842 150.442 66.4293 151.79C64.8602 152.461 63.2394 152.826 61.8077 152.564C60.2883 152.286 59.1028 151.32 58.5073 149.642C57.9144 147.97 58.2107 146.479 59.2138 145.313C60.1561 144.218 61.641 143.502 63.2774 143.055ZM81.5948 138.211C80.8203 138.271 80.1663 138.648 79.696 139.642C79.2289 140.629 79.3509 141.387 79.8095 142.047C80.3189 142.781 81.31 143.476 82.7295 144.041C85.1118 144.99 88.3644 145.441 91.4173 145.291C89.5577 142.762 87.1502 140.485 84.9249 139.222C83.6038 138.471 82.4621 138.144 81.5948 138.211ZM85.9145 137.483C88.8822 139.169 91.9829 142.328 94.053 145.604L94.8916 146.931L93.3327 147.129C89.5681 147.608 85.175 147.168 81.9876 145.899C80.4023 145.267 78.9955 144.383 78.1653 143.188C77.2844 141.919 77.1254 140.398 77.8873 138.788C78.6462 137.185 79.9081 136.336 81.4414 136.218C82.8819 136.106 84.4396 136.646 85.9145 137.483ZM78.2346 125.177C79.0087 125.112 79.6605 124.731 80.1248 123.735C80.5861 122.745 80.4595 121.987 79.997 121.33C79.4832 120.599 78.488 119.91 77.0651 119.353C74.6772 118.418 71.422 117.988 68.3701 118.155C70.2447 120.673 72.6657 122.935 74.8985 124.186C76.2241 124.928 77.3678 125.249 78.2346 125.177ZM73.9193 125.93C70.9416 124.262 67.8221 121.122 65.7325 117.858L64.886 116.536L66.4437 116.328C70.2053 115.827 74.6011 116.241 77.7959 117.492C79.3849 118.114 80.7971 118.989 81.6343 120.18C82.5228 121.443 82.6909 122.963 81.9386 124.578C81.1893 126.185 79.9325 127.041 78.4 127.169C76.9601 127.289 75.3992 126.759 73.9193 125.93Z" fill="#616060"/>
</g>
<path d="M44.816 226.208C43.7707 226.208 42.8747 225.963 42.128 225.472C41.392 224.981 40.8747 224.309 40.576 223.456L41.856 222.72C42.2933 224.075 43.2907 224.752 44.848 224.752C45.616 224.752 46.2027 224.597 46.608 224.288C47.0133 223.968 47.216 223.547 47.216 223.024C47.216 222.491 47.0133 222.091 46.608 221.824C46.2027 221.557 45.5253 221.275 44.576 220.976C44.1067 220.827 43.7493 220.709 43.504 220.624C43.2587 220.528 42.9493 220.389 42.576 220.208C42.2133 220.016 41.9413 219.824 41.76 219.632C41.5787 219.429 41.4133 219.168 41.264 218.848C41.1253 218.528 41.056 218.165 41.056 217.76C41.056 216.789 41.3973 216.021 42.08 215.456C42.7627 214.88 43.5947 214.592 44.576 214.592C45.4613 214.592 46.2293 214.816 46.88 215.264C47.5413 215.712 48.0373 216.304 48.368 217.04L47.12 217.76C46.64 216.608 45.792 216.032 44.576 216.032C43.968 216.032 43.4773 216.181 43.104 216.48C42.7307 216.779 42.544 217.184 42.544 217.696C42.544 218.187 42.72 218.56 43.072 218.816C43.424 219.072 44.032 219.339 44.896 219.616C45.2053 219.712 45.424 219.781 45.552 219.824C45.68 219.867 45.8773 219.941 46.144 220.048C46.4213 220.155 46.624 220.24 46.752 220.304C46.88 220.368 47.0507 220.459 47.264 220.576C47.488 220.693 47.6533 220.805 47.76 220.912C47.8667 221.019 47.9893 221.152 48.128 221.312C48.2773 221.461 48.384 221.616 48.448 221.776C48.512 221.936 48.5653 222.123 48.608 222.336C48.6613 222.539 48.688 222.757 48.688 222.992C48.688 223.973 48.3307 224.757 47.616 225.344C46.9013 225.92 45.968 226.208 44.816 226.208ZM51.4695 222.64C51.6082 223.355 51.9335 223.909 52.4455 224.304C52.9682 224.699 53.6082 224.896 54.3655 224.896C55.4215 224.896 56.1895 224.507 56.6695 223.728L57.8535 224.4C57.0748 225.605 55.9015 226.208 54.3335 226.208C53.0642 226.208 52.0295 225.813 51.2295 225.024C50.4402 224.224 50.0455 223.216 50.0455 222C50.0455 220.795 50.4348 219.792 51.2135 218.992C51.9922 218.192 53.0002 217.792 54.2375 217.792C55.4108 217.792 56.3655 218.208 57.1015 219.04C57.8482 219.861 58.2215 220.853 58.2215 222.016C58.2215 222.219 58.2055 222.427 58.1735 222.64H51.4695ZM54.2375 219.104C53.4908 219.104 52.8722 219.317 52.3815 219.744C51.8908 220.16 51.5868 220.72 51.4695 221.424H56.8135C56.6962 220.667 56.3975 220.091 55.9175 219.696C55.4375 219.301 54.8775 219.104 54.2375 219.104ZM60.782 222.64C60.9207 223.355 61.246 223.909 61.758 224.304C62.2807 224.699 62.9207 224.896 63.678 224.896C64.734 224.896 65.502 224.507 65.982 223.728L67.166 224.4C66.3873 225.605 65.214 226.208 63.646 226.208C62.3767 226.208 61.342 225.813 60.542 225.024C59.7527 224.224 59.358 223.216 59.358 222C59.358 220.795 59.7473 219.792 60.526 218.992C61.3047 218.192 62.3127 217.792 63.55 217.792C64.7233 217.792 65.678 218.208 66.414 219.04C67.1607 219.861 67.534 220.853 67.534 222.016C67.534 222.219 67.518 222.427 67.486 222.64H60.782ZM63.55 219.104C62.8033 219.104 62.1847 219.317 61.694 219.744C61.2033 220.16 60.8993 220.72 60.782 221.424H66.126C66.0087 220.667 65.71 220.091 65.23 219.696C64.75 219.301 64.19 219.104 63.55 219.104ZM75.7425 214.8H77.1345V226H75.7425V224.624C75.0492 225.68 74.0412 226.208 72.7185 226.208C71.5985 226.208 70.6438 225.803 69.8545 224.992C69.0652 224.171 68.6705 223.173 68.6705 222C68.6705 220.827 69.0652 219.835 69.8545 219.024C70.6438 218.203 71.5985 217.792 72.7185 217.792C74.0412 217.792 75.0492 218.32 75.7425 219.376V214.8ZM72.8945 224.864C73.7052 224.864 74.3825 224.592 74.9265 224.048C75.4705 223.493 75.7425 222.811 75.7425 222C75.7425 221.189 75.4705 220.512 74.9265 219.968C74.3825 219.413 73.7052 219.136 72.8945 219.136C72.0945 219.136 71.4225 219.413 70.8785 219.968C70.3345 220.512 70.0625 221.189 70.0625 222C70.0625 222.811 70.3345 223.493 70.8785 224.048C71.4225 224.592 72.0945 224.864 72.8945 224.864ZM87.4515 214.8C88.4862 214.8 89.3448 215.147 90.0275 215.84C90.7208 216.523 91.0675 217.376 91.0675 218.4C91.0675 219.413 90.7208 220.267 90.0275 220.96C89.3448 221.653 88.4862 222 87.4515 222H84.8755V226H83.3875V214.8H87.4515ZM87.4515 220.608C88.0702 220.608 88.5822 220.4 88.9875 219.984C89.3928 219.557 89.5955 219.029 89.5955 218.4C89.5955 217.76 89.3928 217.232 88.9875 216.816C88.5822 216.4 88.0702 216.192 87.4515 216.192H84.8755V220.608H87.4515ZM93.9011 219.344C94.3598 218.352 95.1918 217.856 96.3971 217.856V219.312C95.7145 219.28 95.1278 219.461 94.6371 219.856C94.1465 220.251 93.9011 220.885 93.9011 221.76V226H92.5091V218H93.9011V219.344ZM104.074 224.992C103.252 225.803 102.255 226.208 101.082 226.208C99.9083 226.208 98.911 225.803 98.0896 224.992C97.279 224.181 96.8736 223.184 96.8736 222C96.8736 220.816 97.279 219.819 98.0896 219.008C98.911 218.197 99.9083 217.792 101.082 217.792C102.255 217.792 103.252 218.197 104.074 219.008C104.895 219.819 105.306 220.816 105.306 222C105.306 223.184 104.895 224.181 104.074 224.992ZM101.082 224.848C101.882 224.848 102.554 224.576 103.098 224.032C103.642 223.488 103.914 222.811 103.914 222C103.914 221.189 103.642 220.512 103.098 219.968C102.554 219.424 101.882 219.152 101.082 219.152C100.292 219.152 99.6256 219.424 99.0816 219.968C98.5376 220.512 98.2656 221.189 98.2656 222C98.2656 222.811 98.5376 223.488 99.0816 224.032C99.6256 224.576 100.292 224.848 101.082 224.848ZM113.571 214.8H114.963V226H113.571V224.624C112.877 225.68 111.869 226.208 110.547 226.208C109.427 226.208 108.472 225.803 107.683 224.992C106.893 224.171 106.499 223.173 106.499 222C106.499 220.827 106.893 219.835 107.683 219.024C108.472 218.203 109.427 217.792 110.547 217.792C111.869 217.792 112.877 218.32 113.571 219.376V214.8ZM110.723 224.864C111.533 224.864 112.211 224.592 112.755 224.048C113.299 223.493 113.571 222.811 113.571 222C113.571 221.189 113.299 220.512 112.755 219.968C112.211 219.413 111.533 219.136 110.723 219.136C109.923 219.136 109.251 219.413 108.707 219.968C108.163 220.512 107.891 221.189 107.891 222C107.891 222.811 108.163 223.493 108.707 224.048C109.251 224.592 109.923 224.864 110.723 224.864ZM122.592 218H123.984V226H122.592V224.848C122.026 225.755 121.162 226.208 120 226.208C119.061 226.208 118.309 225.915 117.744 225.328C117.178 224.731 116.896 223.925 116.896 222.912V218H118.288V222.832C118.288 223.483 118.464 223.989 118.816 224.352C119.168 224.704 119.653 224.88 120.272 224.88C120.965 224.88 121.525 224.667 121.952 224.24C122.378 223.803 122.592 223.136 122.592 222.24V218ZM129.863 226.208C128.658 226.208 127.655 225.808 126.855 225.008C126.055 224.197 125.655 223.195 125.655 222C125.655 220.805 126.055 219.808 126.855 219.008C127.655 218.197 128.658 217.792 129.863 217.792C130.652 217.792 131.362 217.984 131.991 218.368C132.62 218.741 133.09 219.248 133.399 219.888L132.231 220.56C132.028 220.133 131.714 219.792 131.287 219.536C130.871 219.28 130.396 219.152 129.863 219.152C129.063 219.152 128.391 219.424 127.847 219.968C127.314 220.512 127.047 221.189 127.047 222C127.047 222.8 127.314 223.472 127.847 224.016C128.391 224.56 129.063 224.832 129.863 224.832C130.396 224.832 130.876 224.709 131.303 224.464C131.73 224.208 132.055 223.867 132.279 223.44L133.463 224.128C133.122 224.757 132.631 225.264 131.991 225.648C131.351 226.021 130.642 226.208 129.863 226.208ZM139.189 219.344H137.061V223.68C137.061 224.075 137.136 224.357 137.285 224.528C137.445 224.688 137.685 224.773 138.005 224.784C138.325 224.784 138.72 224.773 139.189 224.752V226C137.973 226.16 137.083 226.064 136.517 225.712C135.952 225.349 135.669 224.672 135.669 223.68V219.344H134.085V218H135.669V216.176L137.061 215.76V218H139.189V219.344ZM141.647 220.16C141.647 220.469 141.801 220.72 142.111 220.912C142.42 221.093 142.793 221.243 143.231 221.36C143.668 221.467 144.105 221.595 144.543 221.744C144.98 221.883 145.353 222.128 145.663 222.48C145.972 222.821 146.127 223.264 146.127 223.808C146.127 224.533 145.844 225.115 145.279 225.552C144.724 225.989 144.009 226.208 143.135 226.208C142.356 226.208 141.689 226.037 141.135 225.696C140.58 225.355 140.185 224.901 139.951 224.336L141.151 223.648C141.279 224.032 141.519 224.336 141.871 224.56C142.223 224.784 142.644 224.896 143.135 224.896C143.593 224.896 143.972 224.811 144.271 224.64C144.569 224.459 144.719 224.181 144.719 223.808C144.719 223.499 144.564 223.253 144.255 223.072C143.945 222.88 143.572 222.731 143.135 222.624C142.697 222.507 142.26 222.373 141.823 222.224C141.385 222.075 141.012 221.829 140.703 221.488C140.393 221.147 140.239 220.709 140.239 220.176C140.239 219.483 140.505 218.912 141.039 218.464C141.583 218.016 142.26 217.792 143.071 217.792C143.721 217.792 144.297 217.941 144.799 218.24C145.311 218.528 145.695 218.933 145.951 219.456L144.783 220.112C144.495 219.429 143.924 219.088 143.071 219.088C142.676 219.088 142.34 219.184 142.063 219.376C141.785 219.557 141.647 219.819 141.647 220.16Z" fill="#444444"/>
<defs>
<filter id="filter0_d_235_554" x="0" y="0" width="203" height="236" filterUnits="userSpaceOnUse" color-interpolation-filters="sRGB">
<feFlood flood-opacity="0" result="BackgroundImageFix"/>
<feColorMatrix in="SourceAlpha" type="matrix" values="0 0 0 0 0 0 0 0 0 0 0 0 0 0 0 0 0 0 127 0" result="hardAlpha"/>
<feOffset dx="8" dy="8"/>
<feGaussianBlur stdDeviation="12.5"/>
<feComposite in2="hardAlpha" operator="out"/>
<feColorMatrix type="matrix" values="0 0 0 0 0 0 0 0 0 0 0 0 0 0 0 0 0 0 0.25 0"/>
<feBlend mode="normal" in2="BackgroundImageFix" result="effect1_dropShadow_235_554"/>
<feBlend mode="normal" in="SourceGraphic" in2="effect1_dropShadow_235_554" result="shape"/>
</filter>
</defs>
</svg>
