<svg width="203" height="236" viewBox="0 0 203 236" fill="none" xmlns="http://www.w3.org/2000/svg">
<g filter="url(#filter0_d_235_569)">
<rect x="17" y="17" width="153" height="186" rx="20" fill="#F6F6F6"/>
<line x1="115.163" y1="84.2596" x2="60.089" y2="149.894" stroke="#616060" stroke-width="8"/>
<path d="M105.389 87.4261L112.06 93.0234" stroke="#616060" stroke-width="4" stroke-linecap="round"/>
<path d="M58.583 146.728C60.1471 146.8 61.4942 147.872 61.8964 149.385C63.1383 154.057 62.9249 157.648 60.9183 162.357C59.9317 164.672 56.9653 165.203 55.0374 163.585L45.8738 155.896C43.9223 154.258 43.9576 151.197 46.1258 149.859C50.1982 147.347 53.6731 146.504 58.583 146.728Z" fill="#616060"/>
<path d="M56.6266 150.501C57.433 150.68 58.1162 151.224 58.4526 151.979C59.3383 153.965 59.5783 155.624 59.1907 157.634C58.8073 159.623 56.3533 160.189 54.8022 158.888L50.3585 155.159C48.8402 153.885 48.9254 151.422 50.7795 150.721C52.6121 150.028 54.3397 149.995 56.6266 150.501Z" fill="#616060"/>
<path d="M132.178 53.772C135.884 53.9232 139.07 56.4834 139.983 60.0786C142.742 70.9406 140.966 79.3375 134.737 88.2288C131.671 92.6052 125.478 92.9151 121.385 89.4804L106.734 77.1874C102.62 73.7349 101.866 67.533 105.708 63.7796C113.103 56.5548 120.935 53.3133 132.178 53.772Z" fill="#616060"/>
<rect x="44.9261" y="98.1979" width="12.3361" height="4.28335" rx="1" transform="rotate(-130 44.9261 98.1979)" fill="#616060"/>
<path d="M37.2574 89.0588L38.4738 76.5588L42.1187 88.2391L37.2574 89.0588Z" fill="#616060"/>
<rect x="51.4886" y="92.6914" width="12.3361" height="4.28335" rx="1" transform="rotate(-130 51.4886 92.6914)" fill="#616060"/>
<path d="M43.8199 83.5522L45.0363 71.0522L48.6812 82.7326L43.8199 83.5522Z" fill="#616060"/>
<line x1="70.7113" y1="83.1926" x2="125.785" y2="148.827" stroke="#616060" stroke-width="8"/>
<path d="M72.1326 93.3672L78.8032 87.7699" stroke="#616060" stroke-width="4" stroke-linecap="round"/>
<path d="M122.406 149.76C122.748 148.232 124.038 147.092 125.598 146.958C130.414 146.547 133.914 147.38 138.203 150.174C140.312 151.548 140.319 154.561 138.391 156.179L129.227 163.868C127.276 165.506 124.267 164.939 123.326 162.572C121.56 158.125 121.332 154.557 122.406 149.76Z" fill="#616060"/>
<path d="M125.782 152.342C126.098 151.579 126.753 151.001 127.554 150.8C129.664 150.273 131.339 150.325 133.252 151.056C135.144 151.778 135.276 154.293 133.724 155.595L129.281 159.324C127.762 160.598 125.351 160.086 124.983 158.139C124.619 156.213 124.887 154.506 125.782 152.342Z" fill="#616060"/>
<path d="M44.4597 97.6421L86.6471 62.2427L89.093 65.1576C89.803 66.0038 89.6927 67.2653 88.8465 67.9753L49.7233 100.804C48.8772 101.514 47.6157 101.403 46.9057 100.557L44.4597 97.6421Z" fill="#616060"/>
<rect x="58.0511" y="87.1848" width="12.3361" height="4.28335" rx="1" transform="rotate(-130 58.0511 87.1848)" fill="#616060"/>
<path d="M50.3824 78.0457L51.5988 65.5457L55.2437 77.226L50.3824 78.0457Z" fill="#616060"/>
<rect x="64.6135" y="81.6782" width="12.3361" height="4.28335" rx="1" transform="rotate(-130 64.6135 81.6782)" fill="#616060"/>
<path d="M56.9448 72.5391L58.1612 60.0391L61.8061 71.7195L56.9448 72.5391Z" fill="#616060"/>
<rect x="71.176" y="76.1717" width="12.3361" height="4.28335" rx="1" transform="rotate(-130 71.176 76.1717)" fill="#616060"/>
<path d="M63.5073 67.0325L64.7237 54.5325L68.3686 66.2129L63.5073 67.0325Z" fill="#616060"/>
<rect x="77.7385" y="70.6651" width="12.3361" height="4.28335" rx="1" transform="rotate(-130 77.7385 70.6651)" fill="#616060"/>
<path d="M70.0698 61.5259L71.2862 49.026L74.9311 60.7063L70.0698 61.5259Z" fill="#616060"/>
<rect x="83.8323" y="65.5518" width="12.3361" height="4.28335" rx="1" transform="rotate(-130 83.8323 65.5518)" fill="#616060"/>
<path d="M76.1636 56.4126L77.3799 43.9127L81.0248 55.593L76.1636 56.4126Z" fill="#616060"/>
</g>
<path d="M82.868 214.8V216.208H79.556V226H78.084V216.208H74.788V214.8H82.868ZM89.4955 224.992C88.6742 225.803 87.6768 226.208 86.5035 226.208C85.3302 226.208 84.3328 225.803 83.5115 224.992C82.7008 224.181 82.2955 223.184 82.2955 222C82.2955 220.816 82.7008 219.819 83.5115 219.008C84.3328 218.197 85.3302 217.792 86.5035 217.792C87.6768 217.792 88.6742 218.197 89.4955 219.008C90.3168 219.819 90.7275 220.816 90.7275 222C90.7275 223.184 90.3168 224.181 89.4955 224.992ZM86.5035 224.848C87.3035 224.848 87.9755 224.576 88.5195 224.032C89.0635 223.488 89.3355 222.811 89.3355 222C89.3355 221.189 89.0635 220.512 88.5195 219.968C87.9755 219.424 87.3035 219.152 86.5035 219.152C85.7142 219.152 85.0475 219.424 84.5035 219.968C83.9595 220.512 83.6875 221.189 83.6875 222C83.6875 222.811 83.9595 223.488 84.5035 224.032C85.0475 224.576 85.7142 224.848 86.5035 224.848ZM99.1205 224.992C98.2992 225.803 97.3018 226.208 96.1285 226.208C94.9552 226.208 93.9578 225.803 93.1365 224.992C92.3258 224.181 91.9205 223.184 91.9205 222C91.9205 220.816 92.3258 219.819 93.1365 219.008C93.9578 218.197 94.9552 217.792 96.1285 217.792C97.3018 217.792 98.2992 218.197 99.1205 219.008C99.9418 219.819 100.352 220.816 100.352 222C100.352 223.184 99.9418 224.181 99.1205 224.992ZM96.1285 224.848C96.9285 224.848 97.6005 224.576 98.1445 224.032C98.6885 223.488 98.9605 222.811 98.9605 222C98.9605 221.189 98.6885 220.512 98.1445 219.968C97.6005 219.424 96.9285 219.152 96.1285 219.152C95.3392 219.152 94.6725 219.424 94.1285 219.968C93.5845 220.512 93.3125 221.189 93.3125 222C93.3125 222.811 93.5845 223.488 94.1285 224.032C94.6725 224.576 95.3392 224.848 96.1285 224.848ZM101.993 226V214.32H103.386V226H101.993ZM106.694 220.16C106.694 220.469 106.848 220.72 107.158 220.912C107.467 221.093 107.84 221.243 108.278 221.36C108.715 221.467 109.152 221.595 109.59 221.744C110.027 221.883 110.4 222.128 110.71 222.48C111.019 222.821 111.174 223.264 111.174 223.808C111.174 224.533 110.891 225.115 110.326 225.552C109.771 225.989 109.056 226.208 108.182 226.208C107.403 226.208 106.736 226.037 106.182 225.696C105.627 225.355 105.232 224.901 104.998 224.336L106.198 223.648C106.326 224.032 106.566 224.336 106.918 224.56C107.27 224.784 107.691 224.896 108.182 224.896C108.64 224.896 109.019 224.811 109.318 224.64C109.616 224.459 109.766 224.181 109.766 223.808C109.766 223.499 109.611 223.253 109.302 223.072C108.992 222.88 108.619 222.731 108.182 222.624C107.744 222.507 107.307 222.373 106.87 222.224C106.432 222.075 106.059 221.829 105.75 221.488C105.44 221.147 105.286 220.709 105.286 220.176C105.286 219.483 105.552 218.912 106.086 218.464C106.63 218.016 107.307 217.792 108.118 217.792C108.768 217.792 109.344 217.941 109.846 218.24C110.358 218.528 110.742 218.933 110.998 219.456L109.83 220.112C109.542 219.429 108.971 219.088 108.118 219.088C107.723 219.088 107.387 219.184 107.11 219.376C106.832 219.557 106.694 219.819 106.694 220.16Z" fill="#444444"/>
<defs>
<filter id="filter0_d_235_569" x="0" y="0" width="203" height="236" filterUnits="userSpaceOnUse" color-interpolation-filters="sRGB">
<feFlood flood-opacity="0" result="BackgroundImageFix"/>
<feColorMatrix in="SourceAlpha" type="matrix" values="0 0 0 0 0 0 0 0 0 0 0 0 0 0 0 0 0 0 127 0" result="hardAlpha"/>
<feOffset dx="8" dy="8"/>
<feGaussianBlur stdDeviation="12.5"/>
<feComposite in2="hardAlpha" operator="out"/>
<feColorMatrix type="matrix" values="0 0 0 0 0 0 0 0 0 0 0 0 0 0 0 0 0 0 0.25 0"/>
<feBlend mode="normal" in2="BackgroundImageFix" result="effect1_dropShadow_235_569"/>
<feBlend mode="normal" in="SourceGraphic" in2="effect1_dropShadow_235_569" result="shape"/>
</filter>
</defs>
</svg>
